<?xml version="1.0" encoding="UTF-8"?>
<!DOCTYPE svg PUBLIC "-//W3C//DTD SVG 1.0//EN" "http://www.w3.org/TR/2001/REC-SVG-20010904/DTD/svg10.dtd">
<!-- Creator: CorelDRAW 2020 (64 Bit) -->
<svg xmlns="http://www.w3.org/2000/svg" xml:space="preserve" width="477px" height="477px" version="1.0" shape-rendering="geometricPrecision" text-rendering="geometricPrecision" image-rendering="optimizeQuality" fill-rule="evenodd" clip-rule="evenodd"
viewBox="0 0 7494 7494"
 xmlns:xlink="http://www.w3.org/1999/xlink"
 xmlns:xodm="http://www.corel.com/coreldraw/odm/2003">
 <g id="Camada_x0020_1">
  <metadata id="CorelCorpID_0Corel-Layer"/>
  <circle fill="#D10808" cx="3747" cy="3747" r="3747"/>
  <path fill="#FEFEFE" d="M3357 1288l780 0c280,0 509,229 509,509l0 1051 1051 0c280,0 509,229 509,509l0 780c0,280 -229,509 -509,509l-1051 0 0 1051c0,280 -229,509 -509,509l-780 0c-280,0 -510,-229 -510,-509l0 -1051 -1050 0c-280,0 -509,-229 -509,-509l0 -780c0,-280 229,-509 509,-509l1050 0 0 -1051c0,-280 230,-509 510,-509z"/>
 </g>
</svg>
