<?xml version="1.0" encoding="UTF-8"?>
<!DOCTYPE svg PUBLIC "-//W3C//DTD SVG 1.0//EN" "http://www.w3.org/TR/2001/REC-SVG-20010904/DTD/svg10.dtd">
<!-- Creator: CorelDRAW 2020 (64 Bit) -->
<svg xmlns="http://www.w3.org/2000/svg" xml:space="preserve" width="1706px" height="725px" version="1.0" shape-rendering="geometricPrecision" text-rendering="geometricPrecision" image-rendering="optimizeQuality" fill-rule="evenodd" clip-rule="evenodd"
viewBox="0 0 160822 68314"
 xmlns:xlink="http://www.w3.org/1999/xlink"
 xmlns:xodm="http://www.corel.com/coreldraw/odm/2003">
 <g id="Camada_x0020_1">
  <metadata id="CorelCorpID_0Corel-Layer"/>
  <path fill="#3C5AA6" fill-rule="nonzero" d="M88429 30536c282,-187 568,-348 858,-483 -304,58 -606,139 -902,244 -464,163 -911,378 -1342,645l-1261 780 -728 -1293c-93,-165 -187,-306 -283,-423 -90,-110 -185,-206 -285,-288l-11 -11c-209,-173 -474,-352 -795,-536 -331,-189 -701,-369 -1108,-539l-50 -22c-244,-113 -505,-189 -783,-229 -298,-43 -617,-45 -959,-7 -191,21 -380,51 -566,90 -172,36 -356,85 -553,147l-11 0c-190,58 -412,133 -662,224 -193,70 -439,167 -728,285l-2 -5c-154,63 -421,179 -809,350 -301,134 -588,265 -854,391l-865 411 -1047 -964 -3397 809c326,2289 649,4579 977,6867l4 79c13,264 32,547 54,847 18,246 36,449 53,610 121,1093 299,2252 532,3478 156,818 340,1679 552,2581l4057 -933c-103,-586 -198,-1163 -287,-1731 -160,-1029 -283,-1941 -372,-2739 -133,-1200 -194,-2250 -183,-3147 11,-971 109,-1758 292,-2363l5 -6c214,-694 500,-1251 858,-1668 475,-555 1052,-869 1730,-945 443,-49 886,14 1329,189 373,148 733,374 1081,679 281,246 535,513 762,799 223,281 430,594 621,936l339 608 -272 640c-205,483 -342,1010 -411,1580 -73,599 -72,1238 4,1918 63,570 172,1110 327,1618 155,506 362,1003 620,1491l-2 1c244,457 518,858 821,1203 286,327 605,606 954,837l-1 2c190,119 404,226 641,321 252,102 522,185 810,249 281,64 571,103 867,118 303,15 621,3 953,-34 431,-47 851,-137 1258,-267 420,-135 833,-314 1238,-535l1861 -1017 163 1468 3394 -560 -947 -7251 1 -108c1,-73 -4,-204 -17,-394 -12,-180 -31,-390 -58,-631 -28,-254 -65,-510 -111,-765 -47,-263 -95,-483 -141,-661l-30 -111 -520 -4138 -3507 2935c-148,124 -249,256 -302,393 -57,149 -74,338 -49,566l8 62 1083 -119 619 5584 -1175 322c-178,49 -310,83 -394,101 -133,28 -262,49 -387,63 -513,58 -1031,31 -1551,-80 -497,-106 -995,-290 -1490,-550l1 -2c-621,-321 -1114,-729 -1479,-1221 -392,-529 -625,-1132 -700,-1805 -35,-320 -33,-640 6,-957 40,-313 114,-629 222,-944 99,-290 231,-582 395,-875 158,-282 339,-551 543,-805l5 -6c208,-256 433,-496 675,-716 232,-210 499,-419 803,-626l11 -11zm246 4018c-35,109 -58,213 -70,310 -14,111 -16,212 -6,300 18,168 70,310 154,424 108,145 275,276 503,393l16 5c183,96 363,171 538,226l-47 -419 -103 -53 -37 -23c-396,-250 -699,-607 -909,-1072l-39 -91zm3566 -5315l2771 -651 -115 -917 -2656 1568zm-61057 -22396l8480 -4735 2799 15726 4021 -2829 4779 176c210,-222 431,-440 665,-653 394,-360 801,-686 1220,-976 414,-287 847,-549 1300,-786 447,-235 906,-439 1375,-614 466,-174 945,-320 1438,-438 506,-121 1005,-210 1498,-265 660,-74 1316,-94 1966,-58 660,36 1304,127 1930,273 647,149 1256,351 1828,605 580,257 1132,571 1657,943l1123 796 -3306 4985 4688 4516 -172 779c-130,588 -391,1159 -781,1710 -363,512 -822,996 -1377,1450l-5 0c-373,303 -772,589 -1198,858l3035 -42 -46 -323 7391 -1762 761 701 49 -22c201,-89 500,-215 889,-373l0 -6c244,-99 518,-205 828,-318 251,-91 516,-180 796,-265l-1 -3c264,-83 539,-155 821,-214 286,-61 565,-105 833,-135 581,-64 1138,-58 1672,19 540,77 1054,227 1541,447 523,219 995,448 1414,688 429,246 824,517 1184,815l1 -1c148,121 290,253 426,394 243,-110 486,-208 732,-294 655,-231 1326,-384 2011,-460 200,-22 370,-38 511,-49 98,-7 206,-12 322,-14l4300 -2538 -455 -2795 -2489 835 562 -6401 9139 -5081 484 2647 62 -23c643,-230 1306,-383 1988,-458 814,-90 1646,-66 2496,73 826,134 1666,378 2521,731 276,112 538,238 785,379l24 -276 9139 -5081 484 2647 63 -23c643,-229 1305,-383 1987,-458 815,-91 1647,-66 2497,73 825,134 1665,378 2520,731 457,184 872,408 1246,671 386,273 739,593 1058,961 293,338 557,706 790,1103 233,398 431,814 593,1245 161,427 293,859 396,1297 103,433 180,884 232,1350 39,354 64,722 75,1107 10,384 5,748 -17,1091 -20,351 -53,689 -99,1012 -21,153 -45,300 -70,441l146 -55c468,-174 947,-319 1439,-436 478,-114 977,-200 1498,-257 663,-74 1320,-92 1971,-55 662,37 1305,129 1930,275 631,147 1241,352 1828,614l76 34 -600 -4213 7392 -1763 761 701 48 -22c311,-137 607,-263 889,-378 245,-100 518,-206 828,-318 315,-115 587,-208 807,-274 251,-79 522,-148 809,-209 286,-60 565,-105 834,-135 580,-64 1137,-58 1671,19 541,78 1054,227 1541,447 524,219 995,449 1414,689 429,245 824,517 1184,815l1 -1c409,333 765,737 1071,1212 285,445 528,953 729,1523l331 939 -6679 5483 -812 -1542c-120,-228 -249,-432 -388,-611 -136,-176 -281,-332 -435,-468 -61,-53 -118,-96 -170,-127 -80,126 -159,314 -236,562l4 2c-113,371 -173,895 -181,1572 -9,750 49,1684 172,2802 94,845 211,1718 350,2616 138,886 311,1881 522,2986l255 1342 -9442 2170 -315 -1242c-194,191 -405,379 -632,565 -532,430 -1115,826 -1751,1186 -634,359 -1316,682 -2046,970 -732,288 -1469,525 -2211,711 -740,185 -1490,320 -2247,404 -672,75 -1325,100 -1959,77 -637,-24 -1247,-100 -1830,-229l-1 4c-615,-134 -1180,-333 -1694,-597 -531,-273 -998,-615 -1401,-1025 -637,-640 -1143,-1391 -1518,-2252 -363,-834 -601,-1762 -714,-2783 -87,-784 -103,-1568 -47,-2352 31,-433 83,-867 158,-1300 -388,162 -775,298 -1161,408l-142 39 1928 11169 -9046 1493 -2882 -17536c-88,220 -185,428 -291,625l2 1c-356,687 -739,1318 -1151,1895 -420,587 -869,1118 -1349,1591 -467,460 -948,868 -1444,1223 -503,362 -1020,667 -1549,916l0 6c-505,235 -1031,431 -1576,585l-142 39 1929 11170 -7037 1161 57 435 -9068 1496 -50 -455c-548,165 -1101,279 -1658,341 -469,52 -935,67 -1398,45 -463,-23 -916,-84 -1357,-185 -443,-99 -858,-227 -1246,-382 -395,-159 -771,-352 -1129,-580l-23 -11c-553,-366 -1060,-811 -1522,-1338 -445,-507 -842,-1088 -1192,-1745l-6 -6c-333,-627 -606,-1291 -820,-1992 -212,-695 -359,-1405 -439,-2130 -100,-905 -102,-1760 -4,-2564 68,-563 185,-1105 351,-1625l-27 -34c-131,-166 -266,-310 -405,-431 -63,-55 -119,-99 -168,-130 -81,126 -160,315 -237,565l3 1c-112,371 -173,896 -181,1572 -8,750 49,1684 173,2802 94,846 210,1719 350,2617 138,886 311,1881 521,2986l255 1341 -9441 2171 -344 -1354c-247,-975 -469,-1925 -665,-2851l-1673 6116 -8591 660 -1796 -3534 -1193 3768 -8374 1072 -8349 -15857 -4015 529 -1176 -7108c-219,309 -442,598 -671,867 -333,395 -676,757 -1028,1087 -346,324 -716,626 -1111,906l2 3c-377,268 -750,504 -1120,708 -372,204 -759,385 -1159,540l1 2c-388,152 -777,276 -1164,373 -391,98 -788,170 -1192,215 -464,52 -929,66 -1393,43 -457,-24 -908,-85 -1352,-186l0 3c-449,-98 -868,-224 -1255,-377 -393,-156 -768,-347 -1126,-572l-22 -17c-569,-375 -1079,-818 -1531,-1330 -439,-500 -837,-1082 -1194,-1749 -342,-642 -618,-1306 -829,-1991 -212,-691 -360,-1403 -442,-2135 -144,-1281 -88,-2470 169,-3566 264,-1125 740,-2149 1429,-3071 530,-713 1082,-1350 1656,-1909 580,-567 1191,-1061 1830,-1482 647,-426 1313,-766 1997,-1020 702,-261 1417,-432 2142,-514 408,-46 825,-65 1253,-58 440,8 852,41 1236,99 153,24 307,51 463,84l111 -1041 -924 320 547 -6433 666 -371zm6374 -304l-4327 2416 -49 573 1518 -526 1143 6906 1194 -134 -1118 594 2809 16978 3254 -428 8353 15864 4603 -589 2748 -8676 4086 8043 4707 -362 4413 -16131 -4180 58 -3044 11479 -5538 -10906 -4556 306 1156 2192 -2427 9747 -5590 -10979 -4131 277 -1422 -8658c3931,2204 7861,4410 11793,6612l-339 -1946 -9091 -5380 6133 -5902 -2313 -86 -6901 4857 -2884 -16199zm15425 10990l-387 471 -370 1193c-27,87 -62,207 -105,361 -29,103 -62,227 -99,375 -156,623 -256,1242 -298,1854 -43,617 -30,1232 39,1844 56,499 149,957 278,1373 125,402 283,766 474,1092l715 1220 1219 383c79,25 148,45 206,60l0 1 217 49 5 0c431,94 873,150 1325,166 476,17 992,-6 1547,-68 621,-70 1244,-185 1868,-342 614,-155 1234,-357 1858,-603 625,-247 1186,-512 1683,-795 499,-284 950,-590 1355,-918l-3 -3c380,-311 669,-605 865,-882l21 -31 -1760 -1695c-126,188 -256,370 -392,543 -280,362 -576,685 -888,968 -321,292 -667,552 -1037,778l-5 6c-372,225 -765,409 -1181,550 -409,140 -836,235 -1280,285l-3028 342 7462 -11252c-404,-175 -827,-315 -1267,-416 -477,-111 -957,-180 -1440,-206 -490,-27 -993,-11 -1509,47 -410,46 -794,112 -1152,198 -371,88 -739,201 -1104,337 -362,135 -712,292 -1052,469 -334,175 -667,378 -999,608 -330,229 -637,473 -920,731 -275,251 -548,539 -820,862l-2 -1 -39 46zm11423 11195c-595,329 -1223,624 -1884,885 -634,251 -1280,465 -1936,642l2243 4417 1577 -5944zm-30044 -4639l267 -2752 -1020 -1941c-85,-162 -179,-318 -280,-466l-41 -59 39 148c68,273 119,556 151,849 49,434 55,869 19,1304 -35,417 -113,853 -230,1307l0 5c-124,465 -294,900 -512,1307 -224,419 -491,795 -800,1128 -344,371 -730,666 -1158,887 -437,224 -907,365 -1411,422 -488,55 -991,27 -1507,-85 -474,-102 -966,-279 -1473,-529l1 -2c-634,-311 -1138,-719 -1512,-1221 -391,-528 -626,-1135 -703,-1819 -41,-359 -34,-717 20,-1073 49,-331 145,-674 286,-1029l-3 -1c127,-325 284,-638 469,-935 185,-298 396,-580 632,-844 244,-273 513,-525 807,-753 274,-213 589,-417 944,-611l6 -6c119,-64 240,-124 362,-180 -354,65 -698,159 -1034,284 -488,181 -964,424 -1428,730 -474,312 -943,694 -1407,1147 -467,456 -920,977 -1356,1564l-6 6c-446,595 -756,1268 -932,2018 -184,782 -221,1651 -113,2608 63,562 174,1100 331,1611 160,522 366,1018 617,1490 240,449 515,849 826,1203 293,332 602,606 929,825l0 -2c189,119 408,228 658,327 252,99 522,181 809,244l12 6c287,65 582,106 884,121 300,15 612,5 937,-32 267,-30 538,-79 812,-148 276,-69 549,-156 819,-261l5 0c262,-102 536,-231 819,-387 286,-158 567,-335 841,-529l5 0c259,-183 527,-405 803,-664 273,-255 541,-540 806,-853l5 -5c269,-315 518,-648 749,-1000 223,-340 454,-741 691,-1196l11 -17c75,-139 143,-290 202,-453 63,-175 120,-372 171,-590l0 -5c44,-190 80,-367 107,-530 31,-193 56,-381 74,-563zm-2831 -9534l36 10 0 6c434,125 849,267 1241,426l-364 -2203 -1442 500 529 1261zm17322 8136l-662 637 723 427c-35,-354 -55,-709 -61,-1064zm2253 10738l-1344 -754 1622 3186 322 -1294 -600 -1138zm-5749 -3224l-432 -242 44 268 388 -26zm13166 -14293c351,47 697,134 1035,261l1639 617 -6070 9514 -1060 -2467c-65,-152 -161,-388 -281,-690 -98,-246 -171,-442 -222,-588l-6 -6c-58,-169 -113,-371 -165,-605 -49,-220 -85,-428 -107,-626 -68,-603 -34,-1195 100,-1776 130,-560 351,-1101 663,-1623 158,-284 367,-546 629,-785l5 0c229,-210 500,-405 811,-585l-1 -2c309,-179 629,-323 960,-432 327,-107 666,-180 1017,-220 342,-38 694,-34 1053,13zm-8576 -8795l8033 -5707 5930 7197 -11754 3635 -3443 -4249 1234 -876zm7524 -1857l-4641 3298 323 399 5868 -1815 -1550 -1882zm-27659 14614c82,-107 156,-215 219,-326l-49 43c-83,77 -146,154 -188,232l2 1c-29,56 -54,109 -73,160l89 -110zm-98 3256l-70 9c-260,29 -513,22 -757,-21 -254,-44 -497,-125 -726,-241l-5 -3 5 3 -111 -70c-390,-244 -688,-579 -896,-1003l5 -2c-24,-49 -47,-99 -68,-149 -27,87 -47,177 -61,269 -18,119 -21,232 -9,338 20,176 73,323 158,437 102,137 262,259 480,366l6 0c286,141 559,239 816,295 217,47 415,60 593,41 156,-18 296,-59 420,-123 75,-38 148,-87 220,-146zm-28230 -11819c540,-248 1064,-489 1572,-720 542,-247 1043,-474 1488,-672 484,-216 984,-430 1497,-642 519,-215 1051,-427 1595,-636l5 0c574,-221 1109,-414 1604,-580 560,-188 1089,-352 1588,-494l1 2c440,-127 860,-230 1263,-308 419,-82 856,-148 1309,-199 694,-78 1268,-133 1720,-165 501,-36 893,-45 1173,-30l33 0c365,30 738,84 1119,163 390,81 752,179 1084,293l6 5c373,132 731,293 1073,484 348,194 674,414 978,659l11 12c313,258 601,540 861,844 258,304 497,637 715,998l11 23c116,201 211,412 284,633 77,232 129,463 155,693 81,721 -15,1512 -287,2372 -239,759 -630,1601 -1172,2527l2 1c-499,856 -1005,1658 -1515,2407 -518,760 -1047,1473 -1585,2138 -439,546 -885,1088 -1327,1615 -150,178 -291,343 -422,496l3537 8612 -5497 4988 -8248 -17116 -167 226 -612 71c-620,73 -1117,-203 -1488,-825l0 -6c-91,-153 -181,-316 -270,-489 -65,-121 -186,-360 -363,-713l-460 -920 2 -1 -1128 -2257c-186,-372 -348,-687 -483,-940 -134,-252 -225,-415 -274,-493l-872 -1373 1484 -683zm2753 1865l-191 87 470 938 796 1604 6 6 66 136c248,-227 532,-358 832,-392l1000 -112 8056 16718 1199 -1088 -3455 -8410 609 -667c250,-273 566,-636 947,-1089 308,-367 732,-885 1283,-1570 486,-602 971,-1255 1451,-1961 477,-699 946,-1442 1404,-2228l6 -6c421,-720 724,-1371 908,-1954 153,-483 211,-884 175,-1202 -5,-51 -12,-88 -21,-113 -9,-29 -22,-59 -38,-89 -132,-217 -278,-420 -437,-607 -157,-184 -322,-347 -493,-490l-1 2c-188,-152 -380,-283 -576,-392 -199,-111 -406,-205 -621,-281l-1 3c-259,-89 -501,-157 -728,-204 -235,-48 -493,-84 -774,-107l0 -1c-154,-6 -415,4 -782,30 -431,31 -967,82 -1609,154 -355,40 -713,95 -1075,166 -376,73 -720,155 -1030,245l-11 6c-495,140 -980,290 -1455,449 -516,173 -1013,351 -1487,533l1 2c-527,203 -1040,408 -1539,614 -486,201 -960,404 -1420,609 -508,226 -991,445 -1465,661zm9020 2799l218 538 335 -495 -1 -1c71,-107 138,-210 200,-309 -215,54 -417,120 -606,201 -49,21 -98,43 -146,66zm-1456 3988l-1972 -4879 721 -668c513,-475 1093,-850 1739,-1125 630,-269 1320,-445 2071,-529 238,-27 496,-40 774,-40l0 -6c217,0 461,14 733,40l1 -1c461,33 839,219 1137,553 249,278 391,609 435,995 54,478 -57,1031 -331,1656l-2 -1c-208,471 -516,1015 -925,1630l-6 6c-388,576 -737,1084 -1047,1519 -314,441 -609,840 -888,1195l-1518 1936 -922 -2281zm141440 2750l2529 -2077 -35 -55c-145,-226 -301,-408 -469,-544l-11 -12c-208,-173 -474,-352 -795,-535 -331,-190 -701,-370 -1108,-540l-50 -22c-244,-112 -505,-189 -783,-229 -297,-42 -617,-45 -958,-7 -191,21 -381,51 -567,90 -160,34 -343,83 -547,148l-17 5c-254,77 -472,150 -661,218 -194,71 -440,167 -728,285 -261,106 -532,222 -811,345 -302,134 -588,265 -855,392l-865 411 -1047 -965 -3397 810 977 6866 4 79c14,263 32,546 54,848 18,246 36,449 54,610 121,1092 298,2251 532,3477 156,819 340,1679 552,2581l4056 -932c-102,-586 -198,-1164 -286,-1731 -160,-1029 -284,-1942 -372,-2739 -133,-1201 -194,-2250 -184,-3148 11,-970 109,-1758 292,-2363l6 -5c214,-695 499,-1251 857,-1669 476,-555 1052,-869 1730,-944 443,-49 885,13 1328,188l2 -5c365,145 725,373 1081,684 172,152 337,314 492,485zm-12702 8064c-84,-560 -156,-1104 -214,-1632 -24,-213 -45,-454 -65,-721 -14,-196 -31,-471 -50,-824l-54 -384 -1293 1942 1676 1619zm-248 3717l-1752 -1694c-127,189 -258,371 -394,544 -263,339 -562,660 -895,962 -331,299 -675,558 -1032,776l-6 6c-373,225 -767,408 -1181,549 -411,139 -838,234 -1281,283l-3031 336 7483 -11241c-391,-170 -815,-309 -1271,-416 -478,-111 -959,-181 -1440,-208 -489,-28 -990,-13 -1503,43 -382,43 -766,110 -1153,202 -372,88 -740,200 -1104,335 -388,144 -739,298 -1053,462l0 5c-358,187 -691,387 -1000,600 -314,217 -622,462 -921,735 -293,266 -569,553 -828,861 -158,187 -319,469 -480,845 -187,432 -361,965 -522,1597l-1 0c-156,621 -256,1240 -300,1854 -44,616 -32,1230 35,1839 82,741 246,1395 492,1959 233,535 544,998 933,1388l5 5c189,192 415,356 678,491 281,145 612,258 992,341l6 6c411,91 853,146 1324,163 477,18 993,-4 1546,-66 623,-68 1246,-181 1869,-337 626,-157 1248,-357 1865,-600 615,-242 1174,-506 1679,-791 502,-285 955,-591 1360,-919 367,-299 654,-594 861,-885l20 -30zm-6853 -8431c347,47 690,134 1029,262l1643 622 -6084 9502 -1060 -2472c-134,-314 -227,-537 -285,-684 -88,-222 -162,-422 -222,-595l0 -6c-71,-208 -128,-408 -170,-599l5 -1c-49,-222 -84,-430 -105,-626 -68,-606 -33,-1200 102,-1781 128,-548 347,-1081 654,-1597l-1 -1c156,-288 372,-558 647,-809 232,-211 504,-407 816,-585l1 2c308,-178 627,-320 954,-427 329,-107 668,-180 1017,-219 347,-38 700,-34 1059,14zm-12164 13643l-1936 -11214 1505 -166c395,-44 785,-121 1170,-230 393,-111 772,-252 1136,-422l-1 -2c378,-178 744,-394 1099,-649 369,-265 739,-580 1110,-944 361,-356 702,-761 1026,-1213 331,-464 644,-981 938,-1549l17 -28c69,-127 135,-276 197,-447 62,-170 119,-369 172,-595l0 -6c59,-248 105,-488 138,-719 35,-254 61,-518 76,-789l0 -12c19,-291 24,-569 17,-834 -7,-266 -29,-556 -64,-873 -38,-342 -96,-681 -176,-1016 -77,-329 -172,-643 -284,-940 -111,-296 -239,-566 -382,-810l-46 -77 7 104c5,81 7,235 9,386 2,93 3,184 12,267 49,435 54,870 17,1303 -36,418 -113,854 -232,1307l0 11c-125,466 -296,901 -513,1306 -221,411 -489,785 -802,1122 -342,367 -730,662 -1164,885 -440,225 -908,365 -1406,420 -489,55 -992,26 -1507,-86 -475,-104 -967,-281 -1472,-531l-39 -22c-293,-156 -568,-369 -822,-637 -218,-230 -427,-506 -623,-825l1 -1c-202,-327 -362,-658 -481,-992 -123,-350 -205,-709 -246,-1078l-17 -151 11 -127c36,-405 132,-813 288,-1224 143,-377 341,-757 594,-1141l0 -6c246,-370 529,-711 847,-1023 321,-315 667,-593 1039,-836l11 -6c263,-169 540,-318 829,-444 -329,58 -657,145 -984,262 -463,165 -908,381 -1335,646l-1770 1097 -483 -2641 -4347 2416 -50 575 1537 -516c360,2207 739,4417 1079,6625 11,103 28,219 50,351 30,185 63,374 100,574l17 101 13 123 2713 16503 3407 -562zm-11418 -20786l-109 -282 -163 -292c-75,-135 -153,-260 -233,-376 72,312 133,685 164,965 49,436 53,871 17,1304 -36,418 -114,854 -232,1307l0 11c-125,466 -296,901 -514,1306 -221,411 -488,785 -802,1122 -341,367 -729,662 -1163,885 -440,224 -909,365 -1407,420 -489,54 -992,26 -1507,-86 -475,-104 -966,-281 -1472,-531l-39 -22c-284,-152 -559,-365 -819,-639l-2 3c-219,-231 -428,-507 -624,-826l2 -1c-202,-327 -363,-658 -481,-992 -123,-350 -206,-709 -247,-1078l-17 -151 12 -128c35,-404 131,-812 287,-1224 143,-377 342,-757 594,-1140l0 -6c246,-369 528,-709 846,-1021 320,-315 668,-595 1040,-839l11 -5c232,-149 529,-305 839,-446 -332,58 -664,146 -993,264 -463,165 -908,381 -1336,646l-1770 1097 -483 -2642 -4346 2417 -50 575 1537 -516c360,2207 739,4417 1079,6625 11,102 28,219 49,351 31,186 64,376 101,574l16 100 14 123 2713 16504 3407 -562 -1936 -11214 1504 -167c395,-43 786,-120 1171,-229 374,-106 754,-250 1141,-430l2 5c366,-173 729,-388 1090,-648 370,-265 740,-580 1110,-944 361,-356 703,-761 1026,-1213 332,-465 644,-981 939,-1549l16 -28c147,-270 270,-617 370,-1042l0 -6c59,-247 105,-487 137,-717 36,-255 62,-519 77,-791l0 -12c19,-291 24,-569 17,-835 -8,-265 -29,-556 -64,-872 -38,-342 -97,-681 -176,-1016 -76,-323 -169,-631 -279,-924l-64 -162zm14723 -4484l-10 -3 2 4 8 -1zm-4002 4511c19,99 45,197 79,294 57,158 129,310 218,453l5 5c90,146 175,262 256,347 36,38 64,64 82,79 279,136 543,231 792,286 218,47 416,61 593,41 163,-17 305,-58 426,-120 73,-37 146,-86 218,-147l-69 9c-262,29 -515,21 -757,-21 -257,-46 -502,-128 -732,-245l-27 -14 -84 -53c-385,-243 -681,-577 -889,-1004 -20,-42 -40,-85 -59,-129 -22,73 -40,146 -52,219zm2773 -2018l-4 -3c32,-41 63,-83 92,-124 -59,35 -100,62 -110,80l-2 -1c-29,55 -53,110 -72,164 32,-36 63,-75 96,-116zm-20273 4025c19,99 46,197 80,295 56,159 129,310 217,453l6 5c89,146 175,262 256,347l0 5c30,33 56,56 76,72 281,137 547,233 797,288 219,47 417,61 594,42 162,-18 304,-59 425,-120 74,-38 147,-87 219,-148l-69 9c-262,29 -515,21 -757,-21 -257,-46 -502,-128 -732,-245l-27 -14 -84 -53c-386,-243 -682,-578 -889,-1004 -21,-42 -41,-86 -59,-130 -23,74 -40,147 -53,219zm2773 -2017l-3 -3c83,-107 156,-214 219,-321l-45 40c-87,80 -151,159 -192,237l-2 -1c-29,55 -53,110 -73,164 32,-36 64,-75 96,-116z"/>
  <path fill="#3C5AA6" fill-rule="nonzero" d="M90672 31070c-502,118 -987,341 -1458,653 -465,316 -853,672 -1171,1063 -313,391 -545,806 -698,1251 -153,445 -206,874 -161,1283 93,841 569,1486 1426,1925 756,397 1500,555 2222,475 142,-16 331,-56 564,-120l-329 -2965c-247,27 -478,-15 -687,-121 -305,-193 -490,-605 -560,-1237 -101,-908 183,-1646 852,-2207zm-58797 -22985l6736 -3761 2841 15962 5462 -3843 4972 184 46 -56c602,-718 1279,-1333 2024,-1850 746,-517 1532,-928 2363,-1238 831,-310 1693,-518 2596,-619 1178,-133 2321,-69 3422,187 1107,255 2100,697 2978,1320l-6618 9978c679,-76 1305,-291 1881,-640 577,-353 1092,-821 1541,-1400 455,-581 837,-1249 1156,-1998l3811 3671c-179,809 -739,1599 -1673,2363 -935,760 -2070,1407 -3415,1939 -1345,531 -2711,878 -4093,1033 -1226,138 -2337,100 -3334,-120 -189,-41 -371,-89 -546,-143l258 1475 4689 -314 4277 8421 2364 -8916 4170 -59 -90 -634 5395 -1286 900 829c621,-295 1204,-552 1737,-771 534,-217 1038,-403 1513,-547 469,-148 935,-243 1386,-293 922,-102 1753,17 2494,358 938,392 1693,823 2265,1298 351,287 655,659 913,1118 1052,-651 2158,-1039 3309,-1166 347,-39 605,-58 783,-58l126 97 5527 -3264 977 7772c125,477 223,1019 291,1632 60,537 85,938 81,1203l1112 8517 -6231 1028 -94 -851c-971,531 -1979,854 -3020,969 -798,89 -1562,53 -2288,-112 -730,-164 -1369,-420 -1923,-772 -903,-598 -1652,-1448 -2247,-2566 -590,-1113 -960,-2318 -1103,-3615 -176,-1585 -6,-2988 513,-4211 -298,-535 -657,-988 -1077,-1356 -453,-397 -890,-571 -1318,-523 -613,68 -1073,605 -1385,1616 -295,976 -315,2623 -58,4942 181,1626 473,3527 888,5708l-6751 1552c-717,-2826 -1200,-5361 -1449,-7604 -41,-375 -79,-886 -113,-1541l-48 -338 -3214 11749 -6649 511 -2941 -5788 -1971 6222 -6488 830 -8351 -15860 -3635 478 -1773 -10715c-44,453 -114,881 -208,1282 -127,543 -295,1009 -507,1399 -486,935 -1024,1761 -1623,2463 -599,708 -1221,1293 -1876,1756 -650,463 -1307,826 -1971,1083 -659,258 -1323,424 -1993,499 -789,89 -1554,50 -2289,-117 -740,-163 -1380,-417 -1924,-761 -904,-595 -1655,-1444 -2251,-2561 -593,-1112 -964,-2316 -1110,-3613 -252,-2238 186,-4116 1324,-5635 969,-1302 2014,-2319 3125,-3051 1111,-731 2284,-1167 3515,-1305 727,-82 1431,-70 2121,35 685,106 1421,317 2198,633 700,278 1290,692 1771,1244 306,351 569,738 790,1159l-1296 -7833 -1996 692 299 -3503zm18992 10691l-5010 4820 5433 3215c-497,-848 -810,-1857 -942,-3028 -157,-1392 -60,-2793 292,-4199 73,-286 148,-556 227,-808zm1301 13611l-9125 -5116 733 4463 3781 -253 4286 8419 1375 -5521 -1050 -1992zm6889 -14886c-483,-182 -961,-244 -1431,-191 -504,57 -978,211 -1420,468 -448,257 -753,537 -916,839 -492,806 -689,1656 -589,2545 37,327 105,633 205,925 100,287 255,683 470,1183l3681 -5769zm-8286 -9230l6955 -4940 3739 4540 -8811 2724 -1883 -2324zm-19023 10486c-77,725 -349,1386 -811,1982 -462,596 -945,924 -1449,981 -247,28 -477,-14 -687,-120 -305,-191 -487,-566 -549,-1122 -48,-427 46,-866 280,-1316 238,-450 647,-828 1233,-1139 -613,68 -1193,254 -1738,546 -544,298 -1000,652 -1367,1064 -367,412 -649,862 -839,1350 -195,489 -267,963 -214,1429 96,860 573,1504 1428,1923 795,391 1530,549 2195,474 660,-74 1220,-363 1683,-863 459,-494 785,-1104 978,-1828 188,-724 249,-1423 173,-2098 -53,-465 -158,-886 -316,-1263zm-29673 -6157c1079,-497 2095,-962 3048,-1387 953,-425 1965,-842 3025,-1250 1061,-409 2086,-750 3070,-1030 754,-219 1536,-369 2344,-460 1344,-152 2233,-213 2659,-189 645,52 1261,180 1852,383 591,208 1135,512 1627,909 489,402 909,894 1259,1475 138,240 224,494 255,775 117,1040 -309,2382 -1273,4031 -964,1653 -1960,3107 -2977,4367 -1017,1265 -1782,2169 -2291,2726l3492 8504 -3348 3037 -8445 -17525c-19,2 -99,98 -236,291 -137,194 -320,450 -540,759 -225,314 -367,503 -421,576 -29,4 -142,-186 -339,-568 -201,-381 -468,-914 -800,-1594 -336,-679 -715,-1435 -1131,-2269 -416,-833 -696,-1350 -830,-1561zm9439 2854l1607 3976c509,-649 1132,-1528 1874,-2631 737,-1108 1081,-1893 1030,-2344 -20,-176 -102,-273 -258,-284 -428,-43 -842,-45 -1251,1 -1226,138 -2226,564 -3002,1282zm146004 5582l-4559 3743c-312,-591 -693,-1088 -1146,-1485 -454,-397 -891,-570 -1319,-523 -613,68 -1073,605 -1384,1616 -296,976 -315,2624 -58,4943 180,1625 472,3526 887,5708l-6750 1551c-717,-2826 -1201,-5360 -1449,-7603 -42,-375 -79,-886 -113,-1542l-1154 -8103 5395 -1286 900 829c621,-295 1204,-552 1738,-770 534,-218 1037,-404 1512,-548 470,-148 936,-243 1387,-293 922,-102 1753,18 2493,359 938,391 1693,822 2265,1298 577,470 1025,1170 1355,2106zm-19338 9435l3804 3677c-180,809 -742,1598 -1677,2360 -936,758 -2072,1404 -3418,1933 -1346,529 -2713,873 -4096,1026 -1226,136 -2337,96 -3333,-125 -996,-217 -1791,-625 -2382,-1228 -1029,-1031 -1636,-2430 -1832,-4193 -154,-1393 -54,-2794 300,-4200 358,-1406 790,-2411 1297,-3010 604,-717 1281,-1331 2027,-1846 746,-516 1533,-926 2365,-1235 832,-308 1694,-514 2597,-614 1178,-131 2321,-65 3422,192 1106,258 2099,701 2976,1326l-6636 9967c680,-76 1306,-289 1883,-637 577,-353 1093,-819 1543,-1398 455,-580 839,-1247 1160,-1995zm-4214 -2818c-482,-183 -960,-245 -1431,-193 -504,56 -977,209 -1420,465 -448,257 -754,536 -918,838 -493,805 -692,1655 -593,2543 36,328 103,633 203,926 99,287 254,684 468,1184l3691 -5763zm-12967 2083l1922 11135 -6226 1028 -2954 -17968 -15 -137c-85,-463 -142,-803 -167,-1026l-798 -4900 -1579 530 64 163c273,725 454,1494 544,2301 74,670 93,1317 52,1952 -35,635 -119,1221 -247,1760 -128,543 -297,1009 -509,1398 -650,1256 -1391,2295 -2232,3125 -837,824 -1701,1444 -2598,1865 -892,417 -1810,677 -2757,782l1923 11135 -6226 1028 -2954 -17968 -16 -138c-84,-462 -141,-802 -166,-1025l-799 -4901 -2013 676 306 -3488 6743 -3749 465 2541c1048,-650 2136,-1040 3267,-1165 1378,-153 2813,82 4321,704 699,278 1289,694 1769,1247 268,309 504,647 707,1011l228 -2597 6742 -3749 465 2541c1049,-650 2136,-1040 3267,-1165 1379,-153 2814,82 4321,704 700,278 1289,694 1769,1247 480,553 855,1194 1127,1920 273,725 454,1494 544,2301 74,671 93,1318 53,1953 -35,634 -120,1220 -248,1759 -127,543 -297,1009 -509,1399 -649,1255 -1390,2294 -2231,3123 -838,825 -1702,1445 -2598,1867 -892,416 -1811,677 -2757,781zm-1860 -10786c58,518 233,1014 526,1486 288,469 592,786 899,949 794,393 1529,552 2194,478 661,-73 1220,-361 1684,-860 460,-493 787,-1102 982,-1826 189,-723 250,-1423 176,-2097 -52,-466 66,-1287 -314,-1265 -78,726 -351,1386 -814,1982 -464,594 -947,922 -1451,978 -247,27 -477,-15 -686,-121 -306,-192 -487,-567 -548,-1123 -48,-427 48,-866 282,-1316 239,-449 1302,-996 1235,-1137 -750,83 -1431,322 -2037,712 -601,393 -1096,876 -1480,1453 -383,581 -598,1148 -648,1707zm-17499 2008c58,518 233,1014 526,1486 287,469 592,786 899,949 794,393 1528,552 2194,478 660,-73 1220,-361 1684,-859 460,-495 787,-1103 981,-1827 189,-723 251,-1423 176,-2098 -51,-466 -198,-1223 -313,-1264 -79,726 -352,1386 -815,1981 -463,595 -946,923 -1450,979 -247,27 -478,-15 -687,-121 -305,-192 -486,-567 -548,-1123 -47,-428 48,-866 283,-1316 238,-450 649,-827 1235,-1137 -221,-146 -1432,322 -2038,711 -601,394 -1095,877 -1479,1454 -383,581 -599,1148 -648,1707z"/>
  <path fill="#96061E" fill-rule="nonzero" d="M87865 45655l4943 -615 12 -211 7202 -1155 -581 8164c143,-215 302,-421 477,-617l5 -6c388,-430 782,-809 1183,-1137 406,-332 835,-622 1289,-870 458,-249 926,-441 1402,-573 481,-134 973,-208 1474,-222 647,-19 -839,-510 -856,-1135 -29,-1029 -136,-2192 -214,-3043 -47,-505 -84,-910 -93,-1144l-37 -931 6346 -3070 547 11806 38 -38c246,-248 506,-476 777,-685 269,-207 558,-399 865,-576 296,-170 596,-319 899,-447 321,-135 635,-245 941,-331l6 0c334,-93 658,-164 969,-211 305,-47 638,-75 1000,-85 451,-13 886,11 1305,69 212,30 423,68 631,116l797 -4662 6851 -3099 646 7231 5035 -2278 178 1804c259,-41 522,-66 788,-74 562,-15 1120,46 1675,185 533,133 1071,338 1615,615l1 -2c221,110 427,234 618,372l-358 -7378 6264 -944 736 6580c478,-99 942,-156 1393,-168 467,-13 902,24 1303,112 423,92 826,242 1209,450l1 -2c212,114 435,259 669,433 202,150 421,331 656,541 146,131 286,265 422,404l74 -439 2564 -1159c-112,-35 -221,-76 -328,-123 -260,-113 -499,-257 -716,-433 -216,-176 -406,-379 -568,-612l-1 1c-157,-223 -284,-462 -382,-717 -92,-242 -159,-502 -201,-778l-8 -53 -3 -114c-10,-375 25,-734 104,-1075 79,-338 206,-674 379,-1006l0 -6c225,-426 530,-769 915,-1026 377,-253 806,-408 1284,-465l22 -3 106 -3c300,-8 580,9 841,52 285,46 556,125 814,234 241,101 448,207 624,318 193,123 374,265 542,427 154,145 280,278 377,397 129,157 236,321 322,492l11 17c83,170 147,354 191,549l0 6c39,171 61,351 66,537 7,237 -12,477 -55,718 -44,247 -107,478 -190,695l-6 5 -45 114 231 -105 1175 16168 -6759 563 -99 -1958 -5764 506 2 -815 -6831 987 -233 -1374c-31,-182 -58,-395 -82,-637 -22,-218 -39,-444 -52,-677l-1 0 -12 -199c-114,153 -231,299 -349,439 -310,366 -635,691 -975,975l-5 0c-339,282 -679,526 -1019,730 -353,212 -716,387 -1087,525l-5 6c-228,84 -457,156 -687,215l624 7040 -6736 547 -432 -5373 -5274 439 -311 -3891c-111,89 -227,176 -349,259 -374,255 -779,483 -1217,686 -430,198 -889,372 -1380,519 -475,143 -964,256 -1465,338 -483,80 -975,127 -1474,141 -467,13 -897,-4 -1288,-51 -418,-50 -823,-136 -1213,-257l0 -2c-427,-131 -806,-300 -1136,-505l36 758 -6750 548 -7 -239c-164,17 -329,28 -497,33 -325,9 -641,-7 -948,-47 -332,-44 -639,-111 -921,-200l0 -2c-279,-87 -553,-199 -823,-334 -282,-141 -532,-294 -751,-460l-22 -17c-357,-281 -680,-616 -969,-1005 -279,-377 -517,-792 -711,-1244l0 -6 -75 -179 -368 5178 -754 356c-269,126 -590,220 -962,282 -294,48 -639,78 -1035,89 -230,6 -472,6 -724,0 -297,-8 -554,-20 -768,-36 -147,-11 -364,-29 -647,-55 -236,-21 -402,-38 -496,-51l-1272 -176 284 -7784 -5983 -750 408 -9473 1196 -148zm2301 2586l-760 95 -191 4438 807 101 -183 -31 327 -4603zm5098 3917l-89 1592 -4 -1 -274 7523c124,8 228,13 313,15 202,5 396,5 579,0l125 -4 1013 -14234 -1393 224 -270 4885zm57701 6761l1023 -85 -674 -9285 -804 363 455 9007zm-446 -15243c-64,-10 -132,-16 -205,-18 -47,95 -84,200 -111,314 -20,85 -32,168 -36,251 9,38 20,75 33,109 14,37 30,69 47,93l6 12c9,12 18,22 28,31 13,10 33,21 59,32 33,15 77,27 130,36 84,14 172,20 263,17l5 0c28,-1 73,-5 134,-12l37 -64c43,-79 80,-156 109,-231l-3 -1c30,-79 49,-140 57,-182 4,-22 7,-45 8,-68 -23,-25 -48,-51 -73,-75l-17 -16c-21,-21 -55,-46 -103,-76 -71,-46 -138,-81 -199,-107 -44,-19 -100,-34 -169,-45zm-9628 6421c-132,42 -265,87 -398,135l-1694 609 -794 -7104 -799 121 481 9877c47,258 85,482 113,672 30,207 58,441 83,704 26,278 44,493 56,662 12,169 26,409 42,707l0 17c8,192 19,423 33,685l18 312 1406 -204 -43 -533c-40,-545 -67,-1076 -81,-1589 -6,-223 -9,-442 -8,-658 1,-238 6,-437 14,-594 11,-206 26,-388 44,-546 21,-193 45,-360 70,-503l5 -11c33,-175 70,-340 113,-493 44,-160 95,-314 152,-463l6 -22c216,-534 442,-957 678,-1269 156,-207 324,-377 503,-512zm1821 -366c-108,3 -224,12 -349,27 401,83 757,309 1069,678 213,252 411,586 594,1002l6 16c373,877 660,1845 861,2904 181,947 292,1976 334,3084l942 -82c48,-421 80,-707 94,-864l-5 -1c27,-301 43,-537 49,-705 8,-230 9,-450 3,-661 -10,-375 -57,-803 -139,-1285 -86,-502 -205,-1028 -358,-1578l-5 -11c-29,-107 -75,-224 -137,-349 -77,-154 -164,-299 -260,-432l-5 -6c-128,-178 -257,-340 -387,-486 -138,-155 -285,-302 -441,-441 -155,-139 -307,-264 -455,-374 -117,-87 -225,-157 -324,-211l-6 -5c-130,-72 -283,-126 -458,-164 -199,-44 -407,-62 -623,-56zm-301 8737l0 -4c-3,-176 -8,-399 -15,-675 -26,-912 -105,-1766 -237,-2561 13,361 38,803 77,1329 43,575 97,1178 164,1803l11 108zm-13806 6691l-622 -7022 1514 -42c200,-5 413,-31 640,-75 216,-42 431,-103 644,-182l2 3c199,-75 403,-175 611,-300 223,-133 442,-290 660,-471l-3 -3c220,-183 430,-393 630,-629 214,-253 418,-535 613,-845l11 -22c40,-61 76,-127 108,-197l2 1c39,-85 77,-183 112,-293l0 -6c41,-125 76,-247 103,-363 -170,245 -361,465 -573,658 -275,251 -582,446 -921,586 -338,139 -698,215 -1079,225 -363,10 -731,-41 -1099,-154 -338,-104 -672,-255 -1000,-453l-34 -22c-219,-141 -421,-326 -603,-553 -145,-181 -280,-391 -400,-629l-2 1c-121,-236 -216,-486 -285,-748 -68,-257 -106,-524 -113,-800l-5 -155 21 -123c52,-304 147,-599 282,-883l6 0 26 -53 -400 204 -167 -1685 -883 400 333 4209 0 78 45 534 6 113 2 0 788 9780 1030 -84zm-6254 -11230l-323 80 217 -1264 -675 -7555 -875 397 1175 14715 1043 -87 -562 -6286zm-3795 677l-99 -1244 -470 594 569 650zm-420 -5260l-56 -699 -997 254c374,123 725,272 1053,445zm-1002 7950l-240 -275c-170,172 -349,330 -537,474 -239,183 -492,342 -759,476l-11 5c-276,137 -565,244 -866,319 -290,72 -595,113 -915,122l-2000 55 -22 29c103,20 210,37 323,50 290,35 582,48 876,40 357,-10 723,-46 1095,-107 358,-59 728,-146 1109,-260 364,-110 698,-235 1001,-375 295,-136 563,-287 804,-451 51,-35 98,-69 142,-102zm-6207 903l45 27 -539 -1614c-87,-259 -134,-403 -149,-453 -45,-147 -82,-281 -113,-400l0 -6c-23,-96 -45,-200 -63,-312 -24,243 -33,488 -26,735 11,398 70,756 178,1072 93,275 227,516 400,721l6 11c64,77 152,150 261,219zm4447 -6788c-265,-37 -531,-53 -797,-48 125,43 250,94 374,153l978 465 293 -370 -63 -21c-253,-82 -514,-142 -785,-179zm-15254 1777c15,-70 32,-140 52,-211l-127 138c-257,290 -447,623 -570,999 -134,414 -194,885 -180,1412 8,300 46,604 113,912 64,295 154,577 269,846l2 -1c114,265 240,490 377,676 129,174 278,327 445,459 96,71 191,130 283,176 110,55 245,107 405,158l5 0c154,48 298,81 432,99 162,22 330,30 502,25 221,-6 449,-37 683,-91 240,-56 470,-132 689,-230l1935 -859 32 1144 1022 -83 -191 -4021 10 -104c6,-54 9,-120 10,-197 2,-99 0,-222 -4,-370l0 -5c-4,-149 -13,-293 -26,-433 -9,-102 -27,-228 -53,-374l-11 -64 -448 -9660 -754 364 8 86c82,891 194,2109 226,3221 36,1296 -87,2481 -535,3231 69,90 134,193 198,310 351,635 231,1007 -10,1451l373 -9 124 4470 -1192 226c-77,15 -171,29 -281,43 -107,14 -206,22 -295,25 -384,10 -757,-39 -1119,-148 -354,-107 -696,-265 -1026,-475l0 -1c-431,-270 -771,-606 -1019,-1005 -264,-426 -403,-898 -417,-1415 -7,-242 14,-480 63,-715z"/>
  <path fill="#96061E" fill-rule="nonzero" d="M88037 47070l3672 -457 -358 5044 2492 423 334 -6029 4297 -690 -1217 17109c-301,141 -780,219 -1429,238 -410,11 -859,0 -1347,-37 -488,-33 -840,-65 -1054,-94l285 -7803 -5974 -749 299 -6955zm67474 13067l-3892 325 -468 -9270 -1269 322 362 -2139 4342 -1964 925 12726zm-3337 -17899c410,-12 763,46 1065,174 302,127 548,283 743,472 197,186 331,351 403,494 75,154 112,324 118,507 7,283 -44,571 -156,867 -113,292 -254,547 -419,758 -168,212 -330,337 -483,377 -299,56 -523,82 -673,87 -381,10 -713,-45 -1000,-170 -287,-125 -517,-310 -689,-560 -175,-249 -287,-544 -338,-882 -13,-490 95,-950 322,-1385 227,-431 595,-678 1107,-739zm-10160 6657c1023,-368 1909,-564 2659,-585 684,-19 1284,112 1800,393 312,168 661,430 1052,779 391,350 735,736 1039,1162 304,422 511,838 620,1243 338,1219 521,2288 546,3203 14,484 -4,992 -51,1528 -50,536 -129,1223 -238,2062l-3605 316c0,-287 -5,-703 -20,-1246 -63,-2257 -427,-4172 -1093,-5739 -259,-586 -503,-874 -733,-868 -301,9 -620,431 -960,1270 -80,206 -144,438 -193,699 -45,261 -79,552 -96,877 -18,322 -19,703 -7,1140 25,888 106,2013 251,3376l-4232 611c-56,-332 -94,-723 -118,-1175 -30,-447 -55,-910 -74,-1388 -26,-478 -56,-914 -93,-1308 -38,-395 -103,-842 -197,-1341l-547 -11264 3531 -532 759 6787zm-10478 10620l616 6948 -3883 315 -902 -11203 -3 -86c-29,-288 -47,-500 -50,-639l-242 -3055 -1272 313 365 -2130 4339 -1964 157 1587c677,-346 1366,-531 2068,-550 856,-24 1727,194 2623,653 416,207 758,492 1025,857 267,365 464,778 595,1238 131,460 204,942 217,1444 12,416 -10,815 -66,1204 -55,388 -136,744 -242,1069 -106,328 -234,606 -384,835 -464,739 -973,1341 -1532,1808 -557,464 -1121,802 -1693,1016 -570,211 -1149,324 -1736,340zm-595 -6730c9,322 91,635 248,941 153,303 324,514 504,630 469,282 913,417 1325,406 411,-12 770,-160 1081,-444 308,-280 540,-638 696,-1073 153,-436 227,-863 215,-1282 -8,-289 -9,-743 -128,-793 -85,442 -287,834 -602,1177 -315,342 -629,519 -942,528 -153,4 -293,-33 -417,-110 -177,-133 -270,-373 -279,-718 -8,-266 73,-530 240,-795 170,-264 442,-476 818,-637 -150,-71 -897,126 -1289,334 -391,212 -719,484 -985,819 -265,338 -427,676 -485,1017zm-4486 8732l-3892 324 -1197 -14992 -1263 322 365 -2139 4339 -1964 1648 18449zm-7662 -6766l2153 2455c-152,489 -538,946 -1152,1367 -614,419 -1346,758 -2201,1015 -855,257 -1713,399 -2571,423 -761,22 -1443,-60 -2044,-247 -602,-184 -1071,-475 -1404,-876 -580,-687 -882,-1579 -913,-2673 -24,-865 109,-1722 398,-2568 292,-847 609,-1443 951,-1786 408,-411 856,-754 1341,-1033 486,-279 991,-491 1518,-638 527,-148 1068,-231 1629,-247 731,-20 1431,79 2095,293 668,215 1255,538 1763,967l-4589 5794c422,-12 818,-112 1191,-296 372,-188 714,-449 1020,-782 310,-333 579,-725 815,-1168zm-2449 -1948c-287,-137 -578,-200 -870,-191 -313,8 -612,79 -898,213 -288,136 -491,292 -607,469 -344,470 -509,983 -494,1535 5,203 32,394 78,579 46,182 121,434 228,753l2563 -3358zm-11435 -1049c-302,171 -559,370 -775,595 -212,224 -376,468 -493,734 -116,266 -171,528 -164,781 15,523 274,943 779,1257 445,283 895,418 1343,405 88,-2 206,-17 353,-45l-51 -1841c-154,4 -293,-33 -417,-109 -178,-134 -270,-397 -282,-790 -26,-954 1256,-1837 -293,-987zm619 -8718l3569 -1726 542 11698c52,299 85,638 96,1018 9,334 5,582 -12,745l251 5295 -3885 315 -15 -528c-624,278 -1261,425 -1907,443 -496,14 -964,-47 -1401,-185 -442,-139 -822,-329 -1145,-573 -525,-414 -942,-975 -1251,-1693 -307,-715 -473,-1475 -495,-2280 -39,-1390 328,-2522 1107,-3397 670,-745 1369,-1316 2093,-1712 724,-395 1471,-602 2235,-623 1027,-29 262,-5691 218,-6797z"/>
  <path fill="#2A75BB" fill-rule="nonzero" d="M89271 30413l-5908 4850 -812 -1542c-120,-227 -249,-431 -388,-610 -136,-177 -281,-333 -435,-468 -63,-55 -119,-99 -168,-130 -82,128 -162,318 -240,572l-1 -1c-108,359 -166,881 -174,1567 -9,750 49,1684 172,2802 94,846 211,1719 350,2617 138,886 311,1881 522,2986l255 1341 -9442 2171 -343 -1354c-361,-1421 -667,-2789 -917,-4104 -250,-1308 -439,-2538 -566,-3689 -24,-214 -45,-454 -65,-721 -14,-197 -31,-471 -49,-824l-1330 -9341 7392 -1762 761 701 49 -22c201,-89 501,-215 888,-373l0 -6c245,-100 518,-205 829,-318 250,-91 512,-179 791,-264l-2 -4c256,-81 533,-152 826,-214 287,-61 565,-105 834,-135 1169,-130 2240,26 3211,465 525,220 996,449 1415,689 429,246 824,517 1184,815l1 -1c409,334 766,738 1071,1213 285,445 528,952 729,1523l331 938 -771 633zm-5179 575l2529 -2076 -35 -55c-145,-227 -301,-408 -468,-545l-12 -11c-208,-173 -473,-352 -794,-536 -332,-189 -702,-369 -1109,-539l-50 -22c-500,-231 -1081,-309 -1741,-236 -191,21 -381,51 -566,90 -161,34 -344,83 -548,147l-17 0c-190,58 -412,133 -661,224 -194,70 -440,167 -728,285l-2 -5c-155,63 -422,179 -809,350 -302,134 -589,265 -855,391l-864 411 -1048 -964 -3397 810 977 6866 4 79c14,263 32,546 54,847 18,246 36,449 54,610 121,1092 298,2252 532,3478 156,818 340,1679 552,2581l4057 -933c-103,-586 -199,-1163 -287,-1731 -160,-1029 -284,-1941 -372,-2739 -133,-1200 -194,-2250 -184,-3147 11,-958 111,-1746 298,-2363l0 -6c214,-694 499,-1250 857,-1668 476,-555 1052,-870 1730,-945 443,-49 886,14 1330,189 372,148 733,374 1081,679 172,152 337,313 492,484z"/>
  <path fill="#FFCB05" fill-rule="nonzero" d="M88369 29315l-4559 3743c-312,-590 -693,-1087 -1146,-1484 -453,-397 -891,-570 -1319,-523 -613,68 -1073,605 -1384,1616 -296,976 -315,2623 -58,4942 180,1626 472,3527 888,5708l-6751 1552c-717,-2826 -1200,-5361 -1449,-7604 -42,-375 -79,-886 -113,-1541l-1153 -8103 5394 -1286 900 829c621,-296 1204,-552 1738,-770 534,-218 1037,-404 1512,-548 470,-148 936,-243 1387,-293 922,-102 1753,17 2493,358 938,392 1693,823 2265,1298 577,470 1025,1171 1355,2106z"/>
  <path fill="#2A75BB" fill-rule="nonzero" d="M90060 29130c282,-186 568,-348 858,-483 -337,65 -670,158 -1000,280 -494,183 -970,425 -1427,725 -477,314 -950,698 -1419,1151 -479,463 -938,982 -1376,1558 -447,596 -759,1268 -936,2017 -185,782 -224,1652 -118,2607 63,570 173,1110 328,1618 154,506 361,1003 619,1490l-2 2c245,457 518,858 821,1203 280,320 591,593 932,822l1 -2c211,135 431,248 661,340 253,102 523,185 811,250 281,63 570,102 867,117 302,15 620,3 953,-33 431,-48 850,-138 1258,-268 420,-135 833,-314 1238,-535l1860 -1018 163 1469 3394 -560 -947 -7251 2 -108c1,-73 -5,-204 -17,-394 -12,-180 -32,-390 -58,-631 -28,-247 -65,-502 -112,-765 -47,-263 -94,-483 -141,-661l-29 -111 -520 -4138 -3507 2935c-148,124 -249,256 -302,393 -58,149 -74,338 -49,566l7 62 1083 -119 620 5584 -1176 323c-177,48 -309,82 -394,100 -138,29 -267,51 -387,64 -513,57 -1031,30 -1550,-81 -498,-106 -995,-290 -1491,-550l1 -2c-621,-321 -1114,-729 -1478,-1221 -392,-529 -626,-1132 -700,-1805 -36,-321 -34,-640 6,-957 39,-314 113,-629 221,-944 100,-290 231,-581 395,-875 158,-282 339,-551 543,-805l6 -6c208,-257 433,-496 675,-716 231,-210 499,-419 802,-626l11 -11zm246 4018c-34,109 -57,212 -70,310 -13,111 -16,212 -6,300 19,168 70,310 155,424 107,145 275,276 502,393l17 5c183,96 362,171 537,226l-46 -413 -58 -30 -83 -52c-396,-250 -698,-607 -909,-1072l-39 -91zm3569 -5316l2768 -652 -115 -915 -2653 1567zm-1961 -2149l6902 -4075 1238 9852c67,263 123,520 167,769 49,276 94,594 134,955 32,286 55,537 69,753 12,178 18,350 18,513l1279 9789 -9068 1496 -51 -455c-548,166 -1101,279 -1657,341 -470,52 -936,67 -1399,45 -463,-23 -916,-84 -1357,-184 -442,-100 -857,-227 -1245,-383 -411,-165 -787,-356 -1130,-574l-22 -17c-553,-366 -1061,-811 -1523,-1338 -444,-507 -842,-1088 -1192,-1745l-5 -6c-333,-627 -607,-1291 -821,-1992 -212,-695 -359,-1405 -439,-2130 -142,-1283 -84,-2472 174,-3566 267,-1128 746,-2153 1438,-3074l6 -6c543,-714 1100,-1347 1670,-1898 581,-561 1192,-1053 1831,-1474 658,-432 1327,-774 2007,-1026 694,-257 1409,-426 2143,-507 197,-22 365,-38 505,-48 99,-8 208,-13 328,-15z"/>
  <path fill="#FFCB05" fill-rule="nonzero" d="M92303 29664c-501,118 -986,341 -1457,653 -465,316 -854,672 -1171,1063 -313,391 -546,806 -699,1251 -153,445 -206,874 -161,1283 94,841 569,1486 1426,1925 756,397 1500,555 2222,475 143,-16 331,-56 564,-120l-329 -2965c-247,27 -477,-15 -686,-121 -305,-193 -491,-605 -561,-1237 -101,-908 183,-1646 852,-2207zm-157 -2464l5526 -3264 977 7772c125,477 223,1019 291,1632 60,537 85,938 81,1203l1112 8517 -6231 1028 -94 -851c-971,531 -1979,854 -3019,969 -799,89 -1563,54 -2288,-111 -730,-165 -1370,-421 -1924,-773 -903,-598 -1651,-1448 -2247,-2566 -590,-1113 -959,-2318 -1103,-3615 -248,-2238 193,-4115 1334,-5632 982,-1292 2034,-2308 3150,-3043 1117,-735 2295,-1169 3526,-1305 347,-39 604,-58 782,-58l127 97z"/>
  <path fill="#2A75BB" fill-rule="nonzero" d="M106772 31474l1929 11169 -9046 1492c-1064,-6473 -2200,-12966 -3197,-19446l-12 -114c-42,-228 -75,-414 -98,-553 -33,-202 -56,-363 -70,-483l-520 -3189 -2488 835 561 -6401 9139 -5081 484 2647 63 -23c643,-230 1305,-383 1987,-458 815,-90 1647,-66 2497,73 825,134 1665,378 2520,731 457,184 872,408 1246,671 386,272 739,593 1058,961 294,338 557,706 790,1103 233,398 431,813 593,1245 161,427 293,860 397,1297 102,434 179,884 231,1350 39,354 65,722 75,1107 10,384 5,748 -17,1091 -20,352 -53,690 -99,1013 -51,362 -112,690 -182,985l-1 0c-74,314 -164,619 -271,913 -104,285 -224,555 -360,809l1 0c-356,687 -739,1319 -1150,1895 -420,588 -870,1118 -1349,1591 -467,460 -948,867 -1444,1223 -511,367 -1025,672 -1544,916l-6 6c-506,236 -1031,431 -1575,585l-142 40zm-1365 8830l-1937 -11214 1505 -167c395,-43 785,-120 1170,-229 375,-106 755,-250 1141,-430l1 3c375,-177 739,-392 1092,-646 369,-265 739,-580 1109,-944 361,-356 703,-761 1027,-1213 331,-465 644,-981 938,-1549l17 -28c69,-127 135,-276 197,-447 61,-170 119,-369 172,-595l0 -6c59,-248 105,-487 138,-718 35,-254 61,-518 76,-790l0 -12c19,-291 24,-569 17,-834 -7,-266 -29,-557 -64,-873 -38,-342 -96,-681 -175,-1016 -78,-329 -173,-643 -285,-940 -111,-295 -238,-566 -382,-811 -57,-96 -117,-191 -181,-283 72,311 133,684 164,963 48,436 53,871 16,1304 -36,418 -114,854 -232,1307l0 11c-125,466 -296,901 -513,1306 -221,411 -489,785 -802,1122 -342,367 -730,662 -1164,884 -440,225 -908,366 -1406,421 -490,54 -993,26 -1507,-86 -475,-104 -966,-281 -1472,-531l-39 -22c-293,-156 -568,-369 -822,-637 -218,-230 -427,-506 -623,-825l1 -1c-202,-327 -362,-658 -480,-992 -124,-349 -206,-709 -247,-1078l-17 -151 11 -127c36,-405 132,-813 288,-1225 143,-376 341,-756 594,-1140l0 -6c246,-370 529,-711 847,-1023 321,-314 667,-593 1039,-837l11 -5c231,-149 529,-305 839,-446 -333,58 -664,146 -994,264 -463,165 -908,381 -1335,646l-1770 1097 -483 -2642 -4347 2417 -50 575 1538 -516c359,2207 738,4417 1078,6625 11,102 28,219 50,351 30,186 63,375 100,574l17 100 13 124 2714 16503 3407 -562zm-698 -20759c19,98 45,197 80,294 56,158 128,310 217,453l5 5c90,146 176,262 256,347 37,38 64,65 82,79 279,136 543,231 792,286 218,47 416,61 593,42 163,-18 305,-59 426,-120 73,-38 146,-87 219,-148l-69 9c-262,29 -515,21 -758,-21 -246,-44 -491,-128 -731,-251l-75 -38 -37 -23c-385,-243 -681,-577 -889,-1004 -20,-43 -40,-86 -59,-130 -22,74 -40,147 -52,220zm2773 -2018l-3 -3c83,-107 156,-214 218,-321l-45 40c-86,80 -150,159 -192,237l-2 -1c-29,55 -53,110 -72,164 32,-36 64,-75 96,-116z"/>
  <path fill="#FFCB05" fill-rule="nonzero" d="M105131 30338l1923 11135 -6227 1028 -2954 -17968 -15 -138c-85,-462 -142,-802 -167,-1025l-798 -4900 -2013 675 306 -3488 6743 -3749 464 2541c1049,-650 2136,-1040 3267,-1165 1379,-153 2814,82 4321,704 700,278 1289,694 1769,1247 480,553 855,1194 1127,1920 273,725 454,1494 544,2301 74,670 93,1318 53,1953 -36,634 -120,1220 -248,1759 -127,543 -297,1009 -509,1399 -649,1255 -1390,2294 -2231,3124 -838,824 -1702,1444 -2598,1866 -892,416 -1811,676 -2757,781zm-1860 -10786c58,518 233,1014 526,1486 288,469 592,786 899,949 794,393 1529,552 2194,478 661,-73 1220,-361 1684,-860 460,-494 787,-1102 981,-1826 190,-723 252,-1423 177,-2098 -52,-465 -198,-1223 -314,-1264 -78,726 -351,1386 -814,1981 -463,595 -947,923 -1450,979 -248,27 -478,-15 -687,-121 -306,-193 -487,-567 -548,-1123 -48,-428 48,-866 282,-1316 239,-450 649,-827 1235,-1137 -221,-146 -1431,322 -2037,711 -601,394 -1096,877 -1480,1454 -383,581 -598,1148 -648,1707z"/>
  <path fill="#2A75BB" fill-rule="nonzero" d="M124271 29466l1929 11169 -9046 1492c-1064,-6473 -2199,-12966 -3196,-19446l-13 -114c-42,-228 -75,-414 -97,-553 -33,-202 -57,-363 -71,-483l-519 -3189 -2489 835 562 -6401 9139 -5081 484 2647 62 -23c643,-230 1306,-382 1988,-458 814,-90 1646,-66 2496,73 825,134 1665,378 2521,731 456,185 872,408 1245,671 386,273 739,593 1059,961 293,338 556,706 790,1104 233,397 430,812 593,1244 160,427 293,860 396,1297 102,433 180,884 232,1350 39,354 64,722 74,1107 11,384 5,748 -16,1091 -21,352 -54,690 -99,1013 -51,362 -112,690 -182,986l-1 -1c-74,315 -165,619 -272,914 -104,284 -224,554 -360,808l1 0c-355,687 -738,1319 -1150,1895 -420,588 -869,1118 -1349,1591 -467,460 -948,867 -1444,1223 -510,367 -1025,672 -1544,916l-5 6c-506,236 -1031,431 -1576,586l-142 39zm-1365 8830l-1936 -11214 1504 -167c395,-43 786,-120 1171,-229 374,-106 755,-250 1141,-430l1 3c374,-177 738,-392 1091,-646 369,-265 739,-580 1110,-944 361,-356 703,-760 1026,-1213 332,-465 644,-981 939,-1549l16 -28c69,-127 135,-276 197,-447 62,-170 120,-368 173,-595l0 -6c59,-248 105,-487 137,-718 36,-254 62,-518 77,-790l0 -12c18,-291 24,-569 17,-834 -8,-266 -29,-556 -64,-873 -38,-342 -97,-681 -176,-1016 -78,-329 -173,-643 -285,-940 -111,-295 -238,-566 -381,-810l-46 -77 7 104c4,79 7,234 9,386 1,93 3,185 12,266 48,436 53,871 16,1304 -35,418 -113,854 -231,1307l0 11c-125,466 -296,901 -514,1305 -221,412 -488,786 -802,1123 -341,367 -729,662 -1164,885 -440,225 -908,365 -1406,420 -489,55 -992,26 -1507,-86 -475,-104 -966,-281 -1472,-531l-39 -17c-285,-152 -561,-366 -821,-641 -219,-231 -428,-507 -624,-826l2 -1c-203,-327 -363,-658 -481,-992 -124,-350 -206,-709 -247,-1078l-17 -151 11 -127c36,-405 132,-812 288,-1224 143,-377 342,-757 594,-1141l0 -6c247,-370 530,-711 848,-1023 320,-314 667,-593 1038,-837l11 -5c264,-169 541,-318 830,-444 -329,58 -657,145 -985,262 -462,165 -908,381 -1335,646l-1770 1097 -483 -2641 -4346 2416 -51 575 1538 -516c359,2207 739,4417 1079,6625 11,102 27,219 49,351 31,186 64,375 100,574l17 101 14 123 2713 16503 3407 -562zm3305 -25270l-8 -2 1 2 7 0zm-4003 4511c19,99 46,197 80,294 56,159 129,310 217,453l6 5c89,146 175,262 256,347 41,44 74,72 97,85l-1 1c273,133 532,225 777,279 219,47 417,61 593,42 163,-18 305,-59 426,-120 74,-38 147,-87 219,-148l-69 9c-262,29 -515,21 -757,-21 -257,-46 -502,-128 -732,-245l-28 -14 -83 -53c-386,-243 -682,-577 -889,-1004 -21,-43 -41,-86 -59,-130 -23,74 -40,147 -53,220zm2773 -2018l-3 -3c32,-41 63,-83 92,-124 -59,35 -101,62 -110,80l-3 -1c-28,55 -53,110 -72,165 32,-37 64,-76 96,-117z"/>
  <path fill="#FFCB05" fill-rule="nonzero" d="M122630 28330l1923 11135 -6226 1028 -2954 -17968 -16 -138c-85,-462 -142,-802 -166,-1025l-799 -4900 -2013 675 306 -3488 6743 -3749 465 2541c1048,-650 2136,-1040 3267,-1165 1378,-153 2813,82 4320,704 700,278 1290,694 1770,1247 480,553 854,1195 1126,1920 274,725 455,1494 545,2301 74,670 93,1318 52,1953 -35,634 -119,1221 -247,1759 -128,543 -297,1009 -509,1399 -650,1255 -1391,2294 -2232,3124 -838,824 -1702,1444 -2598,1866 -892,416 -1811,677 -2757,781zm-1859 -10786c57,518 233,1014 525,1486 288,469 593,786 900,949 794,393 1528,552 2193,479 661,-74 1220,-362 1685,-860 460,-495 787,-1103 981,-1827 189,-723 251,-1423 176,-2098 -51,-465 66,-1286 -313,-1264 -79,726 -352,1386 -815,1981 -463,595 -946,923 -1450,979 -247,27 -478,-15 -687,-121 -305,-192 -486,-567 -548,-1123 -47,-427 48,-866 283,-1316 238,-450 1301,-996 1235,-1137 -751,83 -1432,322 -2038,712 -601,393 -1096,876 -1479,1453 -383,581 -599,1148 -648,1707z"/>
  <path fill="#2A75BB" fill-rule="nonzero" d="M140797 28040l4377 4231 -172 777c-132,595 -394,1167 -783,1715 -353,497 -815,978 -1384,1442 -531,430 -1114,826 -1750,1186 -634,359 -1316,683 -2047,970 -732,287 -1469,525 -2210,711 -741,185 -1490,320 -2247,404 -673,75 -1326,101 -1959,77 -638,-24 -1248,-100 -1830,-229l-1 4c-616,-134 -1181,-333 -1694,-597 -531,-273 -999,-615 -1402,-1025 -637,-640 -1142,-1391 -1517,-2252 -364,-834 -602,-1762 -715,-2784 -87,-783 -102,-1567 -47,-2351 56,-784 183,-1567 380,-2349l0 -6c197,-774 419,-1448 666,-2020 270,-627 579,-1147 926,-1559l3 3c355,-421 715,-798 1081,-1131 379,-345 787,-668 1222,-968 415,-287 849,-548 1301,-784 473,-247 932,-453 1376,-617 467,-174 946,-319 1438,-436 478,-114 977,-199 1498,-257 663,-74 1321,-92 1971,-55 662,37 1306,129 1931,276 630,146 1240,351 1827,613 585,260 1135,574 1650,940l1123 800 -3314 4979 302 292zm1126 5044l-1753 -1694c-127,189 -258,371 -394,544 -262,339 -562,660 -895,962 -330,299 -675,558 -1032,776l-5 6c-374,225 -768,408 -1182,549 -410,139 -837,234 -1280,283l-3032 336 7484 -11241c-391,-171 -815,-309 -1272,-415 -478,-112 -958,-182 -1439,-209 -489,-28 -990,-13 -1504,44 -382,42 -766,109 -1152,201 -373,88 -741,200 -1105,335 -388,144 -739,298 -1053,462 -336,175 -669,377 -1000,605 -314,218 -621,462 -920,735 -307,279 -583,564 -829,855l0 6c-158,187 -318,469 -480,845 -186,432 -360,965 -521,1597l-2 0c-156,621 -256,1240 -300,1854 -44,616 -32,1230 36,1839 82,741 246,1395 492,1959 233,535 544,998 932,1388l6 5c188,192 414,356 677,491 281,145 612,258 993,341l5 6c412,91 853,146 1324,163 478,18 993,-4 1547,-66 623,-68 1246,-181 1868,-337 627,-157 1249,-358 1865,-600 616,-242 1175,-506 1679,-791 503,-285 956,-591 1360,-919 367,-299 654,-594 861,-885l21 -30zm-6854 -8431c347,47 691,134 1030,262l1643 622 -6085 9502 -1059 -2472c-134,-313 -228,-538 -286,-684 -57,-145 -131,-349 -216,-595l-5 -6c-61,-177 -116,-377 -165,-599l-6 -6c-42,-192 -75,-399 -100,-621 -67,-606 -33,-1200 103,-1780 128,-549 346,-1082 654,-1598l-2 0c157,-288 372,-558 648,-810 231,-211 504,-406 816,-585l1 2c308,-178 626,-320 953,-427 329,-108 669,-180 1017,-219 347,-38 701,-34 1059,14z"/>
  <path fill="#FFCB05" fill-rule="nonzero" d="M139811 29065l3804 3677c-180,809 -742,1598 -1677,2360 -936,758 -2072,1404 -3418,1933 -1345,529 -2712,873 -4095,1026 -1226,136 -2337,96 -3333,-125 -996,-217 -1792,-625 -2383,-1228 -1028,-1031 -1636,-2430 -1831,-4194 -155,-1392 -55,-2793 299,-4199 359,-1406 791,-2411 1297,-3011 604,-716 1281,-1330 2028,-1845 746,-516 1533,-926 2364,-1234 832,-309 1694,-515 2597,-615 1179,-131 2321,-65 3423,193 1106,257 2098,700 2975,1325l-6635 9967c679,-76 1305,-289 1882,-637 577,-353 1093,-819 1544,-1398 455,-579 838,-1247 1159,-1995zm-4214 -2818c-482,-183 -960,-245 -1431,-193 -503,56 -977,209 -1420,466 -448,256 -753,535 -917,837 -493,805 -693,1655 -594,2543 36,328 104,634 204,926 99,287 253,683 468,1184l3690 -5763z"/>
  <path fill="#2A75BB" fill-rule="nonzero" d="M160052 20727l-5909 4851 -812 -1542c-120,-228 -249,-432 -387,-611 -136,-176 -282,-332 -436,-468 -61,-53 -117,-96 -169,-127 -81,126 -160,314 -237,562l4 2c-112,371 -173,895 -181,1572 -9,750 49,1684 173,2802 94,845 210,1718 350,2616 137,886 311,1881 521,2986l255 1342 -9442 2170 -343 -1353c-361,-1422 -667,-2790 -917,-4104 -249,-1309 -438,-2539 -566,-3689 -23,-215 -45,-455 -65,-722 -14,-196 -30,-471 -49,-824l-1330 -9340 7392 -1763 761 701 49 -22c310,-137 607,-263 889,-378 244,-100 518,-206 828,-318 315,-115 586,-208 806,-274 251,-79 522,-148 809,-209 287,-60 565,-105 834,-135 581,-64 1138,-58 1671,19 541,78 1055,227 1541,447 524,220 996,449 1415,689 429,245 824,517 1184,815l0 -1c409,333 766,738 1071,1213 286,444 529,952 730,1522l330 939 -770 632zm-5180 576l2530 -2077 -35 -55c-146,-226 -302,-408 -469,-545l-11 -11c-209,-173 -474,-352 -795,-535 -332,-190 -701,-370 -1108,-539l-51 -23c-244,-112 -505,-189 -783,-229 -297,-42 -617,-45 -958,-7 -191,21 -380,51 -566,90 -161,34 -343,83 -547,148l-17 5c-254,77 -472,150 -662,218 -193,71 -439,167 -728,285 -260,107 -531,222 -810,345 -302,134 -589,265 -855,392l-865 411 -1048 -965 -3397 810 978 6866 4 79c13,264 31,545 53,848 18,246 36,449 54,610 121,1092 299,2251 532,3477 156,819 340,1679 552,2581l4057 -932c-103,-586 -199,-1164 -287,-1732 -160,-1029 -283,-1940 -372,-2738 -133,-1201 -194,-2250 -184,-3147 12,-971 109,-1759 293,-2364l5 -5c214,-695 500,-1251 858,-1669 475,-555 1052,-869 1730,-944 450,-50 893,11 1329,183 365,145 725,373 1081,684 173,152 337,314 492,485z"/>
  <path fill="#FFCB05" fill-rule="nonzero" d="M159149 19630l-4559 3743c-311,-591 -693,-1088 -1146,-1485 -453,-397 -891,-570 -1318,-523 -613,68 -1073,606 -1385,1616 -295,976 -315,2624 -58,4943 180,1625 473,3526 888,5708l-6751 1551c-717,-2826 -1200,-5360 -1449,-7603 -41,-375 -79,-886 -113,-1542l-1153 -8103 5394 -1286 900 829c622,-295 1204,-552 1738,-770 534,-218 1038,-404 1513,-548 469,-148 935,-243 1386,-293 922,-102 1753,18 2494,359 937,391 1693,822 2265,1298 576,470 1025,1170 1354,2106z"/>
  <path fill="#2A75BB" fill-rule="nonzero" d="M3116 9902c539,-249 1063,-489 1571,-721 543,-247 1044,-474 1488,-672 485,-216 986,-431 1500,-643 467,-193 1001,-405 1598,-635 574,-221 1108,-414 1604,-580 560,-188 1089,-352 1588,-494l0 2c440,-127 861,-230 1263,-308 420,-82 856,-148 1310,-199 693,-78 1268,-133 1721,-165 500,-36 892,-45 1171,-29l34 0c364,29 737,83 1119,162 390,81 751,179 1084,293l5 5c373,132 732,293 1074,484 347,194 673,414 977,659l11 12c314,258 602,540 861,844 259,304 498,637 715,998l11 23c125,216 222,427 290,633l-5 2c77,231 129,461 155,691 81,721 -15,1512 -287,2372 -240,759 -631,1601 -1172,2527l2 1c-500,856 -1005,1658 -1516,2407 -518,760 -1047,1473 -1584,2138 -440,547 -886,1088 -1329,1616 -149,177 -290,343 -421,495l3538 8613 -5498 4987 -8247 -17116 -168 226 -611 71c-619,73 -1116,-205 -1488,-831 -91,-152 -182,-316 -271,-489 -63,-119 -186,-360 -363,-713l-459 -920 2 -1 -1128 -2256c-187,-374 -349,-689 -484,-943l5 -2c-113,-212 -208,-377 -279,-489l-872 -1372 1485 -683zm2752 1864l-190 87 457 914 808 1628 6 5 67 137c248,-227 531,-358 832,-392l999 -112 8056 16718 1199 -1088 -3454 -8410 609 -667c249,-273 565,-635 946,-1088 307,-366 732,-886 1284,-1571 486,-602 970,-1255 1451,-1961 476,-699 945,-1442 1404,-2228l5 -6c421,-719 724,-1371 908,-1954 153,-482 212,-883 176,-1202 -6,-50 -13,-88 -21,-113l-6 0c-12,-37 -23,-66 -33,-88 -131,-218 -277,-421 -437,-608 -157,-184 -322,-348 -492,-490l-1 2c-188,-152 -381,-283 -577,-393 -198,-110 -406,-204 -621,-280l-1 3c-258,-89 -501,-157 -727,-203 -236,-49 -494,-85 -774,-108l0 -1c-155,-6 -415,4 -782,30 -430,31 -968,82 -1610,154 -354,40 -713,95 -1075,166 -375,73 -719,155 -1029,245l-12 6c-494,140 -980,290 -1454,449 -518,174 -1017,352 -1492,535 -472,182 -982,386 -1532,613 -487,201 -961,405 -1421,610 -509,227 -992,445 -1466,661zm9021 2799l217 538 335 -495 -1 -1c71,-107 138,-210 200,-309 -215,54 -417,120 -605,201 -50,21 -99,43 -146,66zm-1456 3988l-1973 -4879 722 -668c513,-475 1093,-850 1739,-1125 629,-269 1319,-445 2071,-529 237,-27 496,-40 774,-40l0 -6c216,0 461,14 733,40l0 -1c461,33 838,220 1138,553 248,277 391,609 435,995 53,478 -57,1031 -332,1656 -202,461 -512,1005 -927,1629l-5 6c-388,577 -737,1084 -1047,1519 -314,442 -610,840 -889,1195l-1517 1936 -922 -2281z"/>
  <path fill="#FFCB05" fill-rule="nonzero" d="M3706 11194c1080,-497 2096,-962 3048,-1387 953,-425 1965,-842 3026,-1250 1060,-409 2085,-750 3069,-1029 755,-220 1537,-371 2344,-461 1345,-152 2233,-213 2659,-189 646,52 1262,180 1852,383 591,208 1136,512 1628,909 488,402 909,894 1258,1475 138,240 224,494 256,775 117,1040 -309,2382 -1273,4031 -965,1653 -1960,3107 -2978,4367 -1017,1265 -1781,2169 -2291,2726l3493 8504 -3348 3037 -8445 -17525c-19,2 -100,98 -237,291 -137,194 -320,450 -540,759 -224,314 -367,503 -421,576 -28,4 -141,-186 -338,-568 -202,-381 -469,-914 -800,-1594 -337,-679 -715,-1435 -1131,-2269 -417,-833 -697,-1350 -831,-1561zm9439 2854l1608 3976c509,-649 1132,-1528 1874,-2631 736,-1108 1081,-1893 1030,-2344 -20,-176 -103,-273 -258,-284 -429,-43 -843,-45 -1251,2 -1226,137 -2227,563 -3003,1281z"/>
  <path fill="#2A75BB" fill-rule="nonzero" d="M34462 13595c450,178 871,405 1263,681 166,116 324,239 475,369l2468 -276 -1801 956c253,302 489,639 706,1007l3 -1c229,389 427,806 595,1250 163,431 296,861 398,1290 102,429 180,881 233,1356 40,352 66,720 77,1106 11,380 6,742 -15,1086 -20,357 -53,698 -98,1021 -48,350 -109,676 -180,978 -73,314 -163,621 -271,919 -107,296 -227,568 -359,813l2 1c-250,480 -532,961 -848,1442 -308,468 -626,897 -955,1283 -333,395 -675,757 -1027,1087 -347,324 -717,627 -1112,906l2 3c-376,268 -750,504 -1120,708 -372,204 -758,385 -1158,540l0 2c-388,152 -776,276 -1164,373 -391,98 -788,170 -1191,215 -465,52 -930,66 -1393,43 -457,-24 -908,-86 -1352,-186l-1 3c-449,-98 -867,-224 -1254,-377 -393,-156 -769,-347 -1126,-572l-23 -17c-569,-375 -1079,-818 -1530,-1330 -439,-499 -838,-1082 -1194,-1749 -342,-642 -619,-1306 -829,-1991 -212,-691 -360,-1403 -443,-2135 -144,-1281 -88,-2470 169,-3566 264,-1125 740,-2149 1429,-3071 530,-713 1083,-1350 1656,-1909 581,-567 1192,-1061 1831,-1482 647,-426 1312,-766 1996,-1020 703,-261 1417,-432 2142,-514 408,-46 825,-65 1253,-58 440,8 852,41 1236,99 153,24 308,52 464,84l135 -1272 610 1455 37 10c412,119 834,266 1264,440zm663 4179c-62,-106 -131,-211 -206,-315l40 150c67,273 118,556 151,849 49,434 54,869 18,1304 -35,417 -112,853 -230,1307l0 6c-123,464 -294,900 -511,1306 -225,419 -491,795 -801,1128 -343,371 -729,667 -1157,887l-6 0c-438,224 -906,366 -1406,422 -487,55 -991,27 -1507,-85 -474,-102 -965,-279 -1473,-529l2 -2c-634,-311 -1139,-719 -1512,-1221 -392,-528 -627,-1135 -704,-1819 -40,-359 -33,-717 20,-1073 52,-335 147,-678 286,-1029l-3 -1c127,-325 284,-637 469,-935 186,-298 397,-580 633,-844 243,-273 512,-524 806,-753 274,-213 589,-417 945,-611l5 -6c120,-64 240,-124 362,-180 -354,65 -698,159 -1033,284 -488,181 -965,424 -1428,730 -474,312 -944,694 -1408,1147 -467,456 -919,978 -1356,1564l-5 6c-446,595 -757,1268 -933,2018 -183,782 -221,1651 -113,2608 63,562 174,1100 331,1611 160,522 366,1019 617,1490 240,449 516,850 827,1203 292,332 602,606 928,825l1 -2c188,119 407,228 658,327 251,99 521,181 809,244l11 6c288,65 583,105 884,121 300,15 613,5 937,-32 268,-30 538,-79 812,-148 276,-69 550,-156 819,-262l6 0c262,-101 535,-230 818,-386 287,-158 567,-335 841,-529l6 0c258,-183 526,-405 803,-664 272,-256 541,-540 805,-853l6 -5c268,-314 517,-648 748,-1000 224,-340 455,-741 691,-1196l12 -17c75,-139 142,-290 201,-453 61,-168 118,-367 171,-595 57,-241 102,-482 136,-722 35,-257 61,-519 75,-787l0 -11c18,-292 23,-571 15,-841 -7,-263 -29,-554 -65,-872 -38,-334 -97,-671 -178,-1010 -80,-337 -176,-653 -287,-945 -107,-284 -235,-553 -383,-805l0 -5zm-3682 690c85,-109 159,-219 222,-328l-52 45c-85,79 -149,158 -191,238 -28,54 -51,107 -70,157 30,-35 60,-72 91,-112zm-98 3256l-69 9c-261,29 -514,22 -758,-21 -254,-44 -497,-125 -726,-241l-5 -3 5 3 -111 -70c-384,-241 -681,-575 -890,-1003 -24,-50 -47,-100 -69,-152 -27,87 -47,175 -60,264l0 6c-18,119 -21,232 -9,338 20,176 73,323 158,437 101,137 261,259 480,366l5 0c287,141 559,240 816,295 217,47 416,61 594,40 159,-17 299,-58 420,-119l-1 -2c76,-39 149,-88 220,-147z"/>
  <path fill="#FFCB05" fill-rule="nonzero" d="M33938 14921c700,277 1291,691 1771,1244 482,552 857,1193 1131,1917 274,725 456,1493 548,2301 75,670 95,1317 56,1952 -35,634 -118,1221 -245,1760 -126,543 -295,1009 -506,1399 -487,935 -1024,1761 -1623,2464 -599,707 -1221,1292 -1876,1755 -651,463 -1308,826 -1972,1083 -658,258 -1323,424 -1993,499 -789,89 -1553,50 -2289,-117 -740,-163 -1380,-417 -1924,-760 -904,-596 -1654,-1445 -2251,-2562 -592,-1112 -964,-2316 -1110,-3613 -252,-2238 187,-4116 1324,-5635 970,-1302 2015,-2319 3126,-3051 1111,-731 2284,-1166 3514,-1305 727,-82 1431,-70 2121,35 686,106 1422,317 2198,634zm-558 2430c-77,725 -350,1386 -812,1982 -462,596 -944,924 -1448,981 -247,28 -478,-14 -687,-120 -306,-192 -487,-566 -550,-1122 -48,-427 47,-866 280,-1316 238,-450 648,-828 1233,-1139 -612,68 -1193,254 -1738,546 -543,298 -999,652 -1366,1064 -368,412 -649,862 -840,1350 -195,489 -266,964 -214,1429 97,860 573,1504 1429,1923 795,391 1529,549 2195,474 660,-74 1219,-363 1683,-863 459,-494 785,-1104 977,-1828 188,-724 249,-1423 173,-2098 -52,-465 -157,-887 -315,-1263z"/>
  <path fill="#2A75BB" fill-rule="nonzero" d="M65893 17881l4383 4222 -172 779c-129,588 -390,1159 -780,1710 -363,512 -823,996 -1377,1450l-6 0c-529,430 -1112,827 -1748,1188 -641,365 -1320,689 -2040,973 -723,286 -1461,525 -2214,715 -738,186 -1488,323 -2247,408 -671,76 -1324,102 -1959,80 -658,-24 -1271,-98 -1837,-222l0 -1c-605,-132 -1167,-329 -1683,-594 -538,-275 -1008,-616 -1409,-1024 -638,-640 -1145,-1390 -1521,-2249 -364,-832 -603,-1760 -718,-2783 -88,-780 -105,-1563 -50,-2346 54,-787 180,-1573 375,-2355 196,-773 417,-1447 663,-2021 268,-625 575,-1144 922,-1557l-3 -3c327,-390 690,-766 1087,-1129 394,-360 802,-686 1221,-977 413,-286 847,-548 1300,-785 447,-234 905,-439 1375,-614 465,-174 944,-320 1438,-438 505,-121 1004,-210 1497,-265 660,-74 1316,-93 1966,-58 660,36 1304,127 1930,273 647,149 1257,351 1828,604 580,257 1133,572 1657,944l1123 797 -3306 4984 305 294zm1135 5042l-1761 -1696c-125,189 -256,370 -392,544 -279,362 -576,685 -887,968 -322,292 -668,552 -1037,778l-6 6c-371,225 -765,409 -1180,550 -410,140 -836,235 -1280,285l-3029 342 7462 -11252c-404,-175 -827,-314 -1267,-416 -476,-111 -957,-180 -1439,-206 -490,-27 -994,-11 -1510,47 -409,46 -793,112 -1152,198 -371,88 -739,201 -1104,337 -361,135 -712,292 -1052,470 -334,174 -667,377 -999,607 -329,229 -636,473 -920,732 -274,250 -548,538 -820,861l-5 0c-157,187 -317,470 -479,847 -185,431 -357,964 -518,1598 -156,623 -255,1241 -298,1854 -43,617 -29,1232 39,1844 84,740 249,1393 496,1959 234,533 544,994 931,1380l11 11c191,194 416,357 673,489 277,142 610,255 998,339l6 0c431,95 872,150 1325,166 476,17 991,-6 1546,-68 621,-70 1245,-185 1868,-342 615,-155 1234,-357 1858,-603 626,-247 1186,-512 1683,-795 499,-283 951,-590 1355,-918l-2 -3c380,-311 669,-605 864,-882l22 -31zm-6873 -8420c351,46 696,133 1034,260l1640 617 -6070 9514 -1061 -2467c-64,-150 -161,-389 -281,-691 -87,-219 -161,-418 -222,-593l-6 0c-58,-169 -113,-371 -165,-605 -49,-220 -84,-428 -107,-626 -68,-603 -34,-1195 101,-1776 129,-560 351,-1101 663,-1623 154,-278 366,-540 634,-785 229,-210 499,-405 811,-584l-2 -3c309,-179 629,-323 960,-431 327,-108 667,-181 1017,-221 343,-38 695,-34 1054,14zm-8577 -8796l8034 -5707 5929 7197 -11754 3635 -3443 -4249 1234 -876zm7524 -1856l-4641 3297 324 399 5868 -1815 -1551 -1881z"/>
  <path fill="#FFCB05" fill-rule="nonzero" d="M64907 18906l3810 3670c-178,809 -739,1599 -1673,2363 -934,760 -2069,1407 -3414,1939 -1345,531 -2711,878 -4094,1033 -1226,138 -2337,100 -3334,-120 -995,-215 -1792,-621 -2384,-1223 -1030,-1029 -1640,-2428 -1838,-4191 -157,-1392 -60,-2793 292,-4199 356,-1407 786,-2413 1292,-3013 602,-718 1278,-1333 2024,-1850 745,-517 1531,-928 2362,-1238 832,-310 1693,-517 2596,-619 1178,-133 2321,-69 3423,187 1107,255 2099,697 2977,1320l-6617 9978c679,-76 1304,-291 1881,-640 576,-353 1091,-820 1541,-1400 454,-581 836,-1249 1156,-1997zm-4219 -2811c-482,-182 -961,-244 -1431,-191 -503,57 -977,211 -1420,468 -447,257 -752,537 -916,839 -491,806 -689,1656 -589,2545 37,328 105,633 205,925 100,287 255,683 470,1183l3681 -5769zm-8285 -9230l6954 -4940 3740 4540 -8811 2724 -1883 -2324z"/>
  <path fill="#2A75BB" fill-rule="nonzero" d="M59934 45605l-1194 3768 -8374 1072 -11125 -21131 10791 -722 2984 5859 322 -1294 -2693 -5107 10801 -724 3014 5936 1685 -6354 10115 -141 -5939 21712 -8591 660 -1796 -3534zm-3365 1182l2748 -8675 4087 8042 4707 -362 4413 -16131 -4180 58 -3044 11478 -5539 -10905 -4556 306 1156 2192 -2427 9747 -5590 -10979 -4546 304 8168 15514 4603 -589z"/>
  <path fill="#FFCB05" fill-rule="nonzero" d="M59625 41858l-1970 6222 -6489 830 -9646 -18322 7668 -513 4287 8419 1375 -5521 -1925 -3649 7678 -515 4277 8421 2365 -8916 7147 -100 -5176 18922 -6649 510 -2942 -5788z"/>
  <path fill="#2A75BB" fill-rule="nonzero" d="M32815 5437l8480 -4735 2800 15726 4021 -2829 9969 369 -8262 7950 7003 4144 1593 9142 -11862 -6650 874 5323 -9429 1239 -3927 -23732 -2473 857 548 -6433 665 -371zm6374 -304l-4327 2416 -48 574 1518 -527 4027 24344 3790 -499 -1358 -8264 11793 6612 -339 -1947 -9091 -5379 6134 -5902 -2313 -86 -6902 4857 -2884 -16199z"/>
  <path fill="#FFCB05" fill-rule="nonzero" d="M33506 6679l6736 -3761 2842 15962 5461 -3843 6141 227 -7198 6926 8047 4762 967 5545 -11828 -6632 1116 6794 -6609 869 -3977 -24038 -1996 692 298 -3503z"/>
  <path fill="#B30D28" fill-rule="nonzero" d="M89496 44249l4944 -615 11 -211 7202 -1155 -1404 19727 -754 355c-266,126 -584,219 -953,281 -293,50 -642,80 -1043,91 -231,6 -473,6 -725,0 -297,-8 -554,-20 -768,-36 -146,-11 -363,-29 -646,-55 -236,-21 -402,-38 -496,-51l-1273 -177 284 -7783 -5982 -750 407 -9472 1196 -149zm2302 2586l-760 95 -191 4438 807 101 -183 -31 327 -4603zm5097 3917l-88 1592 -4 -1 -275 7523c124,8 229,13 313,15 203,5 396,5 580,0l124 -4 1013 -14234 -1392 224 -271 4885z"/>
  <path fill="white" fill-rule="nonzero" d="M89669 45664l3672 -457 -358 5044 2492 423 334 -6029 4297 -690 -1218 17109c-300,141 -779,219 -1428,238 -410,11 -860,0 -1348,-37 -488,-33 -840,-65 -1053,-94l284 -7803 -5973 -749 299 -6955z"/>
  <path fill="#B30D28" fill-rule="nonzero" d="M103752 51782c14,-70 32,-140 51,-210l-126 137c-258,290 -448,623 -570,999 -135,414 -195,885 -180,1412 8,299 46,603 112,910 65,296 154,579 269,848l2 -1c114,265 241,490 378,676 129,174 277,327 444,459 97,71 191,130 284,176 109,55 244,108 404,158l6 0c154,48 298,81 431,99 162,22 330,30 503,25 220,-6 448,-36 683,-91 240,-56 470,-132 689,-230l1935 -859 32 1144 1021 -83 -191 -4022 11 -103c5,-54 9,-120 10,-197 1,-98 0,-222 -4,-370 -4,-153 -13,-300 -26,-438 -10,-102 -28,-228 -54,-374l-11 -64 -447 -9660 -791 383 247 6311 -235 372c-29,46 -58,89 -87,130l9 16c350,634 231,1006 -10,1450l372 -11 124 4472 -1192 227c-78,15 -172,30 -281,43 -107,14 -206,22 -295,25 -383,10 -757,-39 -1119,-148 -353,-107 -696,-265 -1026,-475l1 -1c-432,-270 -772,-606 -1019,-1005 -264,-426 -404,-898 -418,-1415 -7,-242 14,-481 64,-715zm2789 -11433l5508 -2664 636 13740c23,145 45,320 64,528 19,197 32,406 38,628 5,178 6,341 4,487l0 6c-2,118 -6,222 -12,311l312 6584 -6750 548 -6 -239c-164,17 -330,28 -498,33 -324,9 -641,-7 -947,-47 -332,-44 -640,-111 -922,-200l0 -1c-278,-88 -553,-200 -823,-335 -281,-141 -531,-294 -750,-460l-23 -17c-357,-281 -680,-616 -968,-1005 -279,-377 -517,-792 -712,-1244l0 -6c-191,-445 -337,-900 -438,-1364 -98,-451 -154,-930 -168,-1434 -24,-863 80,-1653 314,-2371 246,-756 629,-1427 1149,-2012l6 -5c387,-431 781,-810 1182,-1138 406,-332 836,-622 1290,-869 458,-250 926,-442 1401,-574 173,-48 348,-89 524,-122l-249 -6353 838 -405z"/>
  <path fill="white" fill-rule="nonzero" d="M106540 50348c-302,172 -559,370 -774,595 -212,224 -377,468 -493,734 -117,266 -172,528 -165,781 15,522 275,943 779,1257 445,283 895,418 1343,405 89,-2 207,-17 353,-45l-51 -1841c-153,4 -293,-33 -416,-109 -178,-134 -271,-397 -282,-790 -27,-954 1256,-1837 -294,-987zm620 -8718l3568 -1726 542 11698c53,299 86,638 96,1018 10,334 5,582 -11,745l251 5295 -3886 315 -15 -528c-624,278 -1260,425 -1907,443 -495,14 -963,-47 -1401,-185 -441,-138 -821,-329 -1144,-573 -525,-414 -943,-975 -1252,-1693 -306,-715 -472,-1475 -495,-2280 -38,-1390 329,-2522 1107,-3397 671,-745 1369,-1316 2093,-1712 724,-395 1472,-602 2236,-623 215,-6 424,100 484,4l-266 -6801z"/>
  <path fill="#B30D28" fill-rule="nonzero" d="M121618 52550l2553 2913 -234 755c-132,426 -358,827 -675,1204 -281,334 -627,641 -1034,921 -373,254 -779,483 -1216,685 -430,198 -890,372 -1381,519 -475,143 -964,256 -1465,338 -483,80 -975,127 -1474,141 -467,13 -896,-4 -1288,-51 -418,-50 -822,-136 -1213,-257 -422,-130 -801,-299 -1136,-508 -355,-221 -666,-491 -933,-811l-2 2c-407,-481 -715,-1030 -925,-1646 -196,-575 -304,-1211 -323,-1907 -14,-516 19,-1032 98,-1547 81,-522 205,-1028 373,-1517l5 -6c172,-496 354,-926 547,-1288 225,-424 471,-770 738,-1038 247,-248 506,-476 778,-685 269,-207 557,-399 864,-576 297,-170 596,-319 899,-446 322,-136 636,-246 942,-332l5 0c335,-93 658,-164 970,-211 305,-47 638,-75 999,-85 451,-13 887,11 1306,69 429,60 850,157 1263,291 426,137 823,306 1191,508 375,205 727,448 1057,725l1050 886 -2339 2954zm-852 3340l-241 -275c-170,172 -348,330 -536,474 -240,183 -493,342 -759,476l-11 5c-277,137 -566,244 -867,319 -290,72 -595,113 -914,122l-2001 55 -22 29c103,20 211,37 323,50 290,35 582,48 876,40 358,-10 723,-46 1096,-107 357,-59 727,-146 1108,-260 365,-110 698,-235 1001,-375 296,-136 564,-287 805,-451 50,-35 97,-69 142,-102zm-6207 903l45 27 -689 -2068c-44,-147 -82,-280 -112,-399l0 -6c-24,-96 -45,-199 -64,-312 -24,243 -33,488 -26,735 11,398 70,756 178,1072 94,275 228,516 401,721l6 11c64,77 151,151 261,219zm4447 -6788c-266,-37 -532,-53 -797,-48 125,43 250,94 374,153l978 464 292 -369 -63 -21c-252,-82 -514,-142 -784,-179z"/>
  <path fill="white" fill-rule="nonzero" d="M120424 53345l2154 2455c-152,489 -538,946 -1152,1367 -615,419 -1346,758 -2201,1015 -855,257 -1713,399 -2572,424 -761,21 -1442,-61 -2044,-248 -602,-184 -1070,-475 -1403,-876 -580,-686 -883,-1578 -913,-2673 -25,-865 108,-1722 398,-2568 292,-847 609,-1443 951,-1787 407,-410 856,-752 1341,-1032 485,-279 990,-491 1517,-638 528,-148 1069,-231 1629,-247 732,-20 1432,79 2096,293 667,215 1255,538 1763,967l-4589 5794c422,-12 818,-112 1190,-296 373,-188 714,-448 1021,-782 309,-333 579,-724 814,-1168zm-2448 -1948c-288,-137 -579,-200 -871,-191 -312,8 -612,79 -897,213 -289,136 -491,292 -607,469 -345,470 -510,983 -495,1535 6,203 32,394 78,579 47,182 122,434 228,753l2564 -3358z"/>
  <path fill="#B30D28" fill-rule="nonzero" d="M128203 61532l-5315 442 -1176 -14733 -1751 446 862 -5047 6851 -3100 1954 21873 -1425 119zm-2702 -2636l1043 -87 -1342 -15025 -876 397 1175 14715z"/>
  <path fill="white" fill-rule="nonzero" d="M128086 60111l-3891 324 -1197 -14992 -1264 322 366 -2139 4338 -1963 1648 18448z"/>
  <path fill="#B30D28" fill-rule="nonzero" d="M134706 59321l624 7040 -6735 547 -1017 -12628 -1 -96 -36 -365c-6,-66 -10,-152 -14,-264l-2 0 -110 -1384 -1755 432 861 -5016 6834 -3093 178 1804c259,-41 522,-66 789,-74 561,-15 1119,46 1675,185 532,133 1070,338 1615,616l1 -3c313,156 598,341 852,554 257,215 488,461 691,738 179,245 340,515 481,810 142,294 254,588 337,880l0 5c84,295 148,588 191,879 42,275 67,579 76,910 7,259 5,503 -7,729 -14,256 -38,496 -71,720l-1 0c-31,221 -72,441 -121,659 -53,236 -112,451 -175,644l-1 0c-70,213 -148,415 -236,605l0 5c-96,209 -199,397 -309,564l-2 -1c-265,421 -543,804 -834,1147 -309,366 -634,691 -974,975l-6 0c-339,283 -679,526 -1019,730 -353,211 -715,386 -1086,525l-6 6c-227,84 -456,156 -687,215zm-2469 4432l-623 -7022 1515 -42c200,-5 413,-31 640,-75 216,-42 430,-103 644,-182l1 3c199,-75 403,-175 612,-300 222,-133 442,-290 659,-471l-2 -2c219,-184 429,-394 629,-630 215,-254 419,-535 613,-845l11 -22c41,-62 77,-128 109,-197l2 1c39,-85 76,-182 112,-293l0 -5c41,-126 75,-247 102,-364 -169,245 -361,465 -573,658 -275,251 -581,446 -920,586 -340,139 -699,215 -1079,225 -364,10 -731,-41 -1100,-154 -337,-104 -671,-255 -1000,-452l-33 -23c-219,-141 -422,-326 -604,-553 -145,-181 -279,-391 -400,-629l-2 2c-121,-237 -216,-487 -285,-749 -67,-257 -105,-524 -113,-800l-4 -155 21 -123c52,-304 146,-598 282,-883l24 -50 -394 201 -166 -1685 -883 400 334 4209 0 79 45 533 5 113 2 0 788 9780 1031 -84z"/>
  <path fill="white" fill-rule="nonzero" d="M133168 58109l615 6948 -3882 315 -903 -11203 -2 -86c-29,-288 -47,-500 -51,-639l-242 -3055 -1272 313 366 -2130 4338 -1964 157 1587c678,-346 1367,-531 2069,-550 855,-24 1727,194 2622,653 416,207 758,492 1025,857 267,365 465,778 596,1238 130,460 203,942 217,1444 11,416 -10,815 -67,1204 -54,388 -136,745 -241,1070 -107,327 -235,605 -385,834 -464,739 -972,1341 -1532,1808 -557,465 -1120,802 -1693,1016 -570,211 -1148,324 -1735,340zm-596 -6730c10,322 92,635 248,941 153,303 325,514 505,630 468,282 912,417 1325,406 410,-12 769,-160 1080,-444 308,-280 541,-638 697,-1073 153,-435 226,-863 215,-1282 -8,-289 -9,-743 -129,-793 -85,442 -287,834 -602,1177 -315,342 -629,519 -942,528 -153,4 -293,-33 -416,-110 -178,-133 -270,-373 -280,-718 -7,-266 74,-531 241,-795 170,-264 441,-476 818,-637 -151,-71 -897,126 -1290,334 -390,212 -719,484 -984,819 -265,338 -427,676 -486,1017z"/>
  <path fill="#B30D28" fill-rule="nonzero" d="M144522 48691c-132,42 -264,87 -398,135l-1693 609 -794 -7104 -799 121 480 9877c48,258 86,482 113,672 31,207 58,442 83,704 27,277 45,494 57,662 12,169 26,409 41,708l0 16c8,193 19,419 33,682l18 314 1407 -203 -43 -533c-41,-545 -68,-1076 -82,-1589 -6,-223 -9,-442 -8,-658 1,-238 6,-437 15,-593 11,-207 25,-388 43,-547 22,-193 45,-360 70,-503l6 -17c30,-163 68,-326 112,-487 44,-160 96,-314 153,-463l6 -22c216,-534 442,-957 678,-1269 156,-207 323,-377 502,-512zm350 -3039c478,-99 943,-156 1393,-168 468,-13 902,24 1303,112 423,92 827,242 1209,450l1 -2c213,114 436,259 669,433 203,150 422,331 657,541 234,210 455,431 663,664 215,240 411,484 587,731l-1 1c205,285 372,558 500,815 145,291 258,586 338,884l-2 1c184,666 324,1281 421,1845 100,585 157,1147 172,1686 8,273 7,549 -3,828 -11,340 -28,627 -49,861l-5 6c-36,383 -69,711 -99,967 -26,227 -73,606 -145,1150l-149 1137 -6290 552 2 -815 -6830 987 -233 -1374c-31,-182 -59,-395 -83,-637 -21,-218 -38,-444 -51,-677l-1 0c-12,-169 -25,-403 -42,-712 -10,-192 -21,-426 -32,-699 -10,-178 -23,-396 -42,-662 -19,-268 -34,-467 -45,-585 -13,-132 -37,-319 -72,-559 -35,-234 -71,-452 -109,-653l-17 -92 -615 -12651 6265 -945 735 6580zm1471 2673c-107,3 -224,12 -348,27 400,83 757,309 1069,679 212,252 411,585 594,1001l5 16c373,876 660,1845 862,2904 180,947 292,1976 334,3084l941 -82c49,-422 80,-706 95,-864l-5 -1c26,-301 43,-536 48,-705 8,-230 9,-450 4,-661 -11,-375 -58,-803 -140,-1285 -85,-502 -205,-1028 -357,-1578l-6 -11c-29,-107 -74,-224 -137,-349 -76,-154 -163,-299 -259,-432l-6 -6c-127,-178 -256,-340 -387,-486 -138,-155 -285,-302 -440,-441 -156,-139 -308,-264 -456,-374 -116,-87 -224,-157 -324,-211l-5 -5c-131,-71 -284,-126 -458,-164 -199,-44 -407,-62 -624,-56zm-301 8737l0 -2c-2,-176 -8,-400 -15,-677 -25,-913 -104,-1766 -237,-2561 13,360 39,803 78,1328 42,576 97,1178 163,1804l11 108z"/>
  <path fill="white" fill-rule="nonzero" d="M143645 47489c1023,-368 1910,-564 2659,-585 685,-19 1285,112 1800,393 312,168 662,430 1053,779 390,350 735,736 1039,1162 304,422 510,839 619,1243 338,1219 521,2288 547,3203 14,484 -5,992 -52,1528 -50,536 -128,1223 -238,2062l-3605 316c1,-287 -5,-703 -20,-1246 -63,-2257 -426,-4171 -1093,-5739 -258,-586 -503,-874 -733,-868 -301,9 -619,431 -959,1270 -80,206 -144,438 -193,699 -46,261 -80,552 -97,877 -18,322 -19,703 -7,1140 25,888 107,2013 251,3376l-4232 611c-56,-332 -94,-723 -118,-1175 -30,-447 -55,-910 -74,-1388 -25,-478 -55,-914 -93,-1308 -37,-395 -103,-842 -197,-1341l-547 -11264 3532 -532 758 6787z"/>
  <path fill="#B30D28" fill-rule="nonzero" d="M157259 60152l-5354 446 -455 -9005 -1705 432 855 -5042 2563 -1159c-112,-35 -221,-76 -328,-123 -260,-113 -499,-258 -716,-433 -216,-175 -405,-379 -567,-612l-2 1c-157,-223 -284,-462 -381,-717 -94,-245 -161,-502 -201,-772l-8 -51 -4 -128c-10,-372 25,-728 105,-1069 78,-338 205,-674 379,-1006l0 -6c224,-427 529,-769 914,-1026 378,-252 806,-408 1285,-465l20 -3 113 -3c297,-8 575,9 835,52 285,47 557,125 815,234 240,101 448,207 623,318 200,127 386,275 560,444l-3 2c160,152 281,278 363,378 128,157 236,321 322,492l11 17c83,171 146,354 191,549 39,171 60,353 66,543 6,237 -12,476 -55,717l5 1c-41,228 -106,460 -196,695l-5 5 -45 113 231 -104 1175 16168 -1406 117zm-2662 -2639l1023 -85 -675 -9285 -803 363 455 9007zm-447 -15243c-63,-10 -132,-16 -204,-18 -48,95 -85,200 -111,314 -20,83 -32,166 -36,248 9,41 20,79 32,112 15,38 31,69 48,93l5 12c9,12 18,22 29,31 12,10 32,21 58,32 34,15 77,27 131,36 84,14 171,20 262,17l6 0c27,-1 72,-5 134,-12l36 -64c44,-79 80,-156 110,-231l-3 -1c23,-60 40,-121 51,-182l5 0c4,-23 7,-46 9,-69 -29,-34 -54,-61 -74,-79l-17 -11c-20,-21 -55,-46 -102,-76 -72,-46 -138,-81 -200,-107 -43,-19 -100,-33 -169,-45z"/>
  <path fill="white" fill-rule="nonzero" d="M157142 58731l-3891 325 -468 -9270 -1270 322 363 -2139 4341 -1964 925 12726zm-3336 -17899c410,-12 763,46 1065,174 301,127 548,283 742,472 197,186 332,351 404,494 75,154 112,324 117,507 8,283 -43,571 -156,867 -113,292 -253,547 -419,758 -168,212 -330,337 -482,377 -300,56 -523,82 -674,87 -380,10 -713,-46 -1000,-170 -287,-125 -516,-310 -688,-560 -176,-249 -287,-544 -338,-882 -14,-490 95,-950 322,-1385 227,-431 595,-678 1107,-739z"/>
 </g>
</svg>
