<?xml version="1.0" encoding="UTF-8"?>
<!DOCTYPE svg PUBLIC "-//W3C//DTD SVG 1.0//EN" "http://www.w3.org/TR/2001/REC-SVG-20010904/DTD/svg10.dtd">
<!-- Creator: CorelDRAW 2020 (64 Bit) -->
<svg xmlns="http://www.w3.org/2000/svg" xml:space="preserve" width="800px" height="800px" version="1.0" shape-rendering="geometricPrecision" text-rendering="geometricPrecision" image-rendering="optimizeQuality" fill-rule="evenodd" clip-rule="evenodd"
viewBox="0 0 7597 7599"
 xmlns:xlink="http://www.w3.org/1999/xlink"
 xmlns:xodm="http://www.corel.com/coreldraw/odm/2003">
 <g id="Camada_x0020_1">
  <metadata id="CorelCorpID_0Corel-Layer"/>
  <path fill="#373435" d="M1159 2491c18,-96 119,-371 178,-415 14,-93 259,-371 313,-426 54,-53 334,-298 426,-312 42,-57 304,-156 395,-173 85,-41 344,-74 466,-76 103,-2 402,14 475,51 57,9 192,39 223,74 68,4 328,138 351,173 43,17 71,40 104,64l65 50c1,2 3,4 5,5l15 19 -4 -3c79,40 325,294 361,386 36,19 195,292 197,353 23,24 34,62 45,93 13,36 22,64 33,99 21,69 41,142 50,218l12 110c27,33 27,383 0,416l0 31c-5,52 -19,187 -47,217 0,69 -92,315 -128,350 -48,165 -274,432 -371,529 -97,97 -362,322 -528,371 -35,35 -281,127 -350,127 -30,29 -165,42 -217,48 -14,3 -57,11 -90,2 -10,7 2,3 -22,9 -17,4 1,1 -17,3 -57,8 -253,7 -285,-13 -45,8 -103,-1 -143,-14 -59,-7 -354,-75 -410,-128 -58,0 -336,-164 -353,-197 -93,-36 -345,-281 -386,-360l3 3c-31,-20 -55,-59 -78,-90 -24,-33 -44,-58 -60,-99 -36,-24 -169,-283 -173,-350 -35,-32 -66,-167 -74,-224 -36,-68 -54,-376 -52,-475 2,-85 36,-394 71,-446zm944 -2358l-401 163 -319 185c-26,17 -17,15 -44,20 -18,28 -190,149 -235,186 -182,150 -369,344 -510,534 -28,39 -53,91 -93,119l-205 363 -151 380c-7,14 -6,12 -13,20 1,30 -28,146 -43,171 -6,41 -14,69 -23,110l-17 78c-8,23 -4,13 -11,23l-32 359 -3 207c1,39 6,67 -3,103l12 58c17,184 35,243 58,409 12,28 25,83 23,116 20,24 86,250 90,271 12,14 61,143 75,174 18,39 72,137 74,168l409 597 18 19c34,19 51,47 85,83 28,30 59,52 78,87 11,5 4,-1 16,9 11,9 5,6 9,14 40,18 65,54 102,84 18,14 25,21 47,39 26,22 28,13 39,45 33,7 24,5 56,30l357 244c49,7 118,56 172,82 30,15 147,62 163,75 72,20 142,52 218,75l221 69c38,-4 103,9 140,24 53,5 263,24 293,44l87 -2c221,6 377,-10 589,-30 42,-12 125,-31 168,-26 2,-2 5,-3 7,-4 2,-1 5,-3 7,-4l387 -119c27,-21 129,-62 160,-62l133 -72c152,-79 257,-156 372,-217l65 59c16,21 7,5 14,24l29 18c9,7 16,16 24,24 32,33 123,110 137,148 32,12 146,130 172,161l18 29 29 18c8,7 16,16 24,24 33,34 122,109 137,148 31,11 177,156 190,190 32,12 178,158 190,190 27,10 24,12 53,42l127 129c11,16 2,-1 10,18l172 161c18,22 8,5 17,30 28,10 25,13 54,42 29,29 124,114 137,147 32,13 177,159 189,191 28,10 26,13 54,41l137 148 39 28c100,87 216,144 356,155 98,5 204,-31 284,-77l75 -42 82 -81 29 -51c44,-64 64,-120 83,-195 15,-160 -1,-277 -97,-407l-79 -102 -30 -18c-5,-4 -19,-17 -24,-23 -19,-18 -29,-31 -47,-48 -38,-36 -74,-62 -88,-102 -26,-9 -28,-12 -55,-40l-136 -149 -29 -18c-6,-4 -20,-17 -25,-23 -36,-35 -120,-107 -135,-149 -30,-12 -176,-154 -191,-190l-29 -18c-8,-7 -15,-16 -23,-24 -18,-19 -30,-30 -48,-48 -39,-39 -77,-66 -89,-100 -22,-8 -9,-1 -31,-17l-70 -72c-11,-12 -83,-78 -86,-95 -1,-3 -2,-4 -3,-6 -23,-9 -9,0 -30,-18 -38,-31 -150,-143 -160,-172 -30,-11 -30,-16 -54,-41l-119 -119c-6,-9 -5,-8 -11,-17l-6 -13 -101 -89c-41,-40 -68,-60 -96,-104l3 4c-22,-12 -172,-157 -186,-191 -22,-9 -8,0 -30,-17l-53 -62c37,-75 99,-163 145,-244 34,-60 108,-226 134,-252 0,-23 47,-144 65,-168 18,-71 49,-145 72,-222 13,-44 39,-185 63,-212l15 -100c25,-238 47,-391 39,-644 -3,-36 -8,-59 1,-92 -1,-2 -2,-5 -3,-7l-39 -262c-16,-36 -28,-102 -24,-140l-69 -221c-24,-75 -55,-146 -75,-218 -14,-16 -62,-136 -78,-169 -26,-54 -72,-114 -79,-166 -32,-25 -46,-67 -69,-104 -29,-46 -198,-276 -205,-308 -32,-11 -29,-21 -50,-46 -17,-21 -23,-28 -39,-46 -30,-37 -60,-55 -79,-97 -8,-4 -4,2 -14,-9 -11,-10 -4,-5 -9,-16 -35,-19 -57,-50 -87,-78 -33,-31 -65,-52 -83,-85l-19 -18c-43,-18 -105,-79 -148,-112 -182,-138 -229,-163 -414,-270l-35 -27c-31,-2 -133,-58 -175,-77 -29,-13 -149,-56 -165,-70 -50,-12 -97,-31 -145,-46 -23,-8 -42,-14 -67,-21 -34,-9 -40,-8 -61,-24 -33,2 -93,-10 -119,-24 -77,-10 -154,-29 -235,-39 -60,-8 -196,-7 -237,-31l-95 3 -208 3c-134,9 -259,23 -389,46 -67,12 -317,83 -351,81z"/>
 </g>
</svg>
