<?xml version="1.0" encoding="UTF-8"?>
<!DOCTYPE svg PUBLIC "-//W3C//DTD SVG 1.0//EN" "http://www.w3.org/TR/2001/REC-SVG-20010904/DTD/svg10.dtd">
<!-- Creator: CorelDRAW 2020 (64 Bit) -->
<svg xmlns="http://www.w3.org/2000/svg" xml:space="preserve" width="5907px" height="1073px" version="1.0" shape-rendering="geometricPrecision" text-rendering="geometricPrecision" image-rendering="optimizeQuality" fill-rule="evenodd" clip-rule="evenodd"
viewBox="0 0 590522 107303"
 xmlns:xlink="http://www.w3.org/1999/xlink"
 xmlns:xodm="http://www.corel.com/coreldraw/odm/2003"
 xmlns:dc="http://purl.org/dc/elements/1.1/"
 xmlns:cc="http://creativecommons.org/ns#"
 xmlns:rdf="http://www.w3.org/1999/02/22-rdf-syntax-ns#"
 xmlns:svg="http://www.w3.org/2000/svg"
 xmlns:sodipodi="http://sodipodi.sourceforge.net/DTD/sodipodi-0.dtd"
 xmlns:inkscape="http://www.inkscape.org/namespaces/inkscape"
 inkscape:version="0.92.2 5c3e80d, 2017-08-06"
 sodipodi:docname="grass.svg">
 <g id="Camada_x0020_1">
  <metadata id="CorelCorpID_0Corel-Layer"/>
  <g id="_1549834142.svg">
   <sodipodi:namedview id="base" pagecolor="#ffffff" bordercolor="#666666" borderopacity="1.0" inkscape:pageopacity="0.0" inkscape:pageshadow="2" inkscape:zoom="0.98994949" inkscape:cx="187.08701" inkscape:cy="-33.092869" inkscape:document-units="mm" inkscape:current-layer="layer3" showgrid="false" borderlayer="true" fit-margin-top="0" fit-margin-left="-1.6" fit-margin-right="0" fit-margin-bottom="0" inkscape:window-width="1440" inkscape:window-height="878" inkscape:window-x="1" inkscape:window-y="0" inkscape:window-maximized="0"/>
   <g id="layer3" inkscape:groupmode="layer" inkscape:label="grass">
    <path id="rect15742" fill="#FEFEFE" fill-rule="nonzero" fill-opacity="0.200000" d="M154963 0c6,9 11,24 17,33l-5 -33 -12 0zm17 33l5162 42163c-100,-63 -192,-138 -293,-200l344 620 733 5995c-117,396 -217,798 -304,1204l-2335 0 -3636 -2778 2186 -3951c-1484,9 -3009,111 -4404,660 -364,143 -671,339 -956,556l-733 -931 4350 -13049c-1668,1 -3445,289 -4774,1377 -2356,1928 -2470,5052 -2452,8018l-2284 -2897c68,527 333,1001 539,1482 538,1254 1127,2482 1747,3694 0,29 1,57 0,83 -12,483 -100,860 -236,1173 -20,1 -38,4 -58,4 -970,86 -1938,189 -2908,308 -305,-1088 -644,-2165 -1058,-3220 -889,-2268 -1999,-4514 -3568,-6385l5784 -17353c-909,911 -1709,1924 -2440,2981 -3176,4593 -5151,9892 -6868,15176 -1183,3641 -2155,7349 -2956,11094 -661,202 -1317,421 -1969,649l-378 -288c-275,-1313 -573,-2621 -901,-3922 -1384,-5480 -3056,-11004 -5891,-15912l1190 -4002c-946,482 -1796,1099 -2574,1806 -1473,-2161 -3245,-4213 -5603,-5416l2651 8920c-117,172 -249,337 -363,510 -2986,4519 -4792,9678 -6227,14893 -1253,24 -2520,146 -3709,556 -849,-4225 -1927,-8402 -3258,-12498 -280,-863 -585,-1721 -883,-2582 56,-127 124,-249 178,-377 206,-481 472,-955 539,-1482l-944 1196c-1480,-4181 -3232,-8281 -5756,-11932 -731,-1057 -1533,-2071 -2442,-2981l5929 17792 -10577 13429c-512,-352 -1053,-666 -1621,-924 -173,-79 -348,-153 -531,-209l1472 1995 -1828 2321c-561,-911 -1148,-1805 -1777,-2669 -1305,-1793 -2883,-3434 -4662,-4794l4448 -36327c-3530,7060 -5721,14719 -7078,22474 -552,3152 -967,6318 -1284,9493 -228,573 -438,1153 -651,1732 -692,-279 -1400,-514 -2123,-701 -875,-873 -1803,-1691 -2791,-2411 -6085,-4430 -13384,-7172 -20826,-8048 -764,-90 -1532,-156 -2303,-158l5289 3846 19629 14275c-569,305 -1114,654 -1640,1028 -1249,-887 -2620,-1613 -4090,-2054l1914 3872c-914,879 -1745,1838 -2503,2856l-6837 2c-396,-575 -812,-1134 -1246,-1680l2901 -3989c157,-191 320,-376 475,-570l132 -266 2096 -2880c-3598,95 -6952,1465 -9817,3550 -425,-316 -858,-621 -1311,-894l297 538 432 780c-1117,872 -2156,1848 -3091,2908 -131,-629 -261,-1257 -407,-1884 -1239,-5330 -2708,-11006 -6553,-15106l2785 19493 -656 0c-880,-868 -1832,-1657 -2841,-2364l887 -4365c-892,1066 -1712,2186 -2467,3349 -551,-323 -1119,-618 -1696,-895 -903,-4270 -2090,-8486 -3639,-12563l405 -1212c-281,0 -566,24 -851,43 -690,-1727 -1445,-3429 -2279,-5097l653 5328c-832,207 -1624,550 -2298,1102 -2878,2355 -2414,6494 -2446,9944 -22,-1 -43,-2 -64,-2l64 51 0 385c-55,2354 -1821,2396 -3176,2995 -1207,-422 -2433,-793 -3668,-1129 -114,-526 -226,-1054 -348,-1579l875 -724c-349,4 -696,19 -1044,38 -673,-2816 -1445,-5607 -2339,-8360 -1718,-5284 -3692,-10583 -6868,-15176 -731,-1058 -1531,-2071 -2440,-2981l8935 26807c-967,157 -1924,376 -2866,646 -2078,-350 -4166,-618 -6254,-802 -203,-19 -408,-28 -612,-42 -861,-1823 -1873,-3571 -3026,-5225l1323 -2389c-980,5 -1972,59 -2937,246 -66,-80 -125,-166 -192,-246l56 273c-310,65 -618,143 -921,241 -44,15 -84,38 -127,54l-5172 -6563c67,527 333,1001 539,1482 892,2082 1922,4093 3029,6063 -917,865 -1467,2078 -1457,3371 12,1405 647,3794 -1602,3676 -623,-33 -1367,28 -1954,290l0 10523 0 1453 0 2701 0 48141 590522 -1 0 -25902 0 -2279 0 -11933 0 -19453c-1010,-2126 -2342,-4093 -4141,-5582l4141 -3012 0 -6727c-3555,1353 -6941,3156 -10014,5394 -1832,1334 -3500,2953 -4877,4779 -38,-1110 -85,-2218 -144,-3327l2057 -1572c-710,276 -1403,588 -2101,890 -310,-5392 -850,-10767 -1784,-16103 -1357,-7754 -3545,-15414 -7076,-22473l4219 34457 -48 231c-1415,1518 -2507,3250 -3383,5099 252,-5330 -33,-10697 -417,-16007l-4112 20211 -5652 -7172c66,527 333,1001 539,1482 1195,2788 2631,5454 4192,8052 -1313,940 -2597,1921 -3863,2920 18,-770 18,-1540 -34,-2311 -57,-825 -184,-1779 -857,-2352 -198,-167 -426,-224 -664,-241 450,1760 764,3552 985,5359 -38,29 -70,57 -107,86l-1122 0c-249,-1745 -539,-3485 -862,-5218 357,-151 741,-254 1108,-229 -348,-1364 -768,-2710 -1284,-4026 -417,-1065 -905,-2112 -1443,-3132 -445,-1752 -937,-3493 -1469,-5220l5128 -15386c-909,911 -1711,1924 -2442,2981 -1694,2450 -3039,5103 -4192,7845 -1498,-4266 -3270,-8453 -5844,-12176 -731,-1058 -1531,-2071 -2440,-2981l6563 19690c-325,932 -651,1863 -955,2798 -1598,4919 -2826,9957 -3736,15052l-876 0c-371,-2152 -823,-4289 -1333,-6412 520,-3033 701,-6121 470,-9191l-1886 3822c-1177,-4043 -2637,-8013 -4736,-11647l1192 -4005c-945,482 -1798,1099 -2576,1806 -1473,-2161 -3245,-4210 -5603,-5413l2652 8915c-119,172 -249,339 -364,512 -3398,5142 -5286,11107 -6812,17048l-5422 -10977c-305,-1044 -622,-2085 -958,-3120 -280,-862 -585,-1721 -883,-2581 56,-128 124,-249 178,-378 206,-481 472,-954 539,-1482l-944 1197c-1480,-4181 -3234,-8281 -5759,-11933 -731,-1057 -1530,-2070 -2439,-2980l5929 17791 -5361 6807c-146,-858 -392,-1703 -802,-2515l-678 1224c-1376,-6802 -3443,-13483 -6551,-19698l3161 25820 -2510 4535 -347 441c-561,-911 -1147,-1806 -1776,-2671 -1306,-1794 -2882,-3436 -4663,-4796l4448 -36325c-3530,7060 -5718,14719 -7075,22474 -552,3155 -970,6323 -1287,9500 -227,571 -436,1149 -649,1726 -693,-280 -1402,-515 -2127,-702 -875,-872 -1798,-1691 -2786,-2410 -6085,-4431 -13387,-7173 -20828,-8048 -765,-90 -1534,-157 -2303,-159l5291 3849 19626 14272c-693,372 -1359,798 -1988,1270 -1671,1252 -3093,2769 -4331,4433l-4352 0 -1577 -3548c-434,216 -974,424 -1469,390 935,-994 1843,-2012 2695,-3081l242 -490 -2216 1692 1251 -1694c-183,56 -358,130 -532,209 -688,313 -1331,712 -1937,1160 -484,-2480 -739,-5007 -848,-7538 -1,42 1,130 0,168 -78,2325 -336,4653 -176,6980 24,354 69,728 156,1090 -361,322 -690,679 -1016,1038 -724,-744 -1493,-1444 -2323,-2079 -482,-369 -981,-713 -1501,-1026l297 536 2281 4124c-102,147 -221,284 -319,434 -63,98 -116,203 -178,302l-1747 1336 -3398 0c-981,-1940 -2133,-3791 -3453,-5522l-5538 -27236c-623,8623 -1003,17397 793,25915 19,90 42,176 63,266 -5251,-4218 -10873,-8033 -16992,-10851 -29,-1381 -298,-2744 -948,-4031l-1626 2937c-261,-105 -514,-227 -778,-329l676 514 -4290 7746 -1182 2135c-5190,-3947 -10755,-7413 -16787,-9905l643 -490c-305,118 -599,259 -902,383 -302,-124 -595,-265 -899,-383l643 490c-3778,1561 -7373,3500 -10806,5708l-4877 -8806c-1803,3570 -784,7728 726,11234 43,99 107,193 154,292 -1684,1217 -3328,2489 -4938,3797 -398,88 -794,187 -1187,295l-470 -1979c-65,720 -118,1447 -173,2171 -223,68 -447,131 -668,205 -329,-434 -657,-868 -1006,-1287l311 1536c-1097,402 -2165,882 -3190,1437l-1143 -2066c429,-493 850,-995 1258,-1507l241 -490 -1830 1399 -775 -1399c-245,492 -430,990 -575,1492 -108,-132 -206,-271 -315,-402l185 914c-47,206 -91,413 -124,622l-2440 1864 692 -3400c-991,1185 -1891,2438 -2712,3741l-113 -49 -1496 -655 -802 -3381 -7331 -30901c-790,8664 -947,17629 1643,26005 614,1985 1420,3999 2518,5808 -223,154 -456,294 -671,458 -254,194 -492,406 -736,612 -1689,-510 -3407,-934 -5137,-1292 -91,-47 -178,-97 -271,-139 -174,-79 -349,-153 -532,-209l159 214c-367,-72 -736,-131 -1104,-198l-19 -14 0 14c-392,-70 -784,-146 -1177,-209 62,-290 113,-587 139,-892l-1560 683c-1460,-207 -2923,-384 -4385,-512 -1078,-95 -2159,-167 -3241,-171l241 105 4350 1906 -3156 1382c0,-3 -14,-5 -14,-10 -263,-196 -535,-379 -809,-561 -444,-942 -1150,-1735 -2233,-2161 -1395,-550 -2917,-654 -4402,-664l2252 4068c-273,-230 -539,-467 -826,-682 -744,-559 -1540,-1050 -2373,-1465 -267,-1032 -574,-2052 -917,-3059l8211 -16626c-2038,611 -3888,1748 -5483,3141 -2273,1984 -4071,4422 -5518,7061 -1447,-2639 -3244,-5077 -5516,-7061 -1596,-1393 -3446,-2530 -5483,-3141l8208 16624c-145,426 -280,856 -411,1287 -710,97 -1410,253 -2079,517 -2320,914 -2963,3481 -2825,5679 43,679 -79,1143 -300,1477l-7427 -2c-76,-1255 -191,-2508 -337,-3758l9274 -4060c-1083,4 -2163,76 -3242,171 -2158,189 -4320,470 -6468,838 -118,-698 -229,-1398 -375,-2093 -1280,-6072 -3868,-11907 -7870,-16680l3995 19641c-1781,429 -3540,940 -5267,1543l-4087 -3125 3673 -18059c-4002,4773 -6590,10608 -7869,16680 -621,2942 -968,5916 -1148,8902l-2204 1 5203 -25583c-4003,4773 -6589,10608 -7869,16680 -341,1618 -583,3247 -780,4881 -831,-1322 -1739,-2596 -2745,-3797l1050 5167c-1387,100 -3121,300 -3019,-1638 68,-1298 -254,-3137 -2009,-2937 -3538,404 -6190,-3472 -9456,-4879 -2490,-1073 -5309,-1877 -8013,-1618 0,-2395 -273,-4785 -958,-7151l-6524 19570c-715,-939 -1497,-1821 -2347,-2639l1913 -3876c-1469,442 -2838,1168 -4087,2055 -721,-512 -1484,-963 -2283,-1341l353 -714c-367,110 -726,243 -1080,385 -354,-142 -713,-275 -1079,-385l353 714c-379,180 -749,374 -1111,585 -315,-214 -627,-431 -948,-638l641 814c-296,182 -582,378 -866,580 -420,-299 -856,-576 -1304,-831l3166 -7122c-493,269 -916,650 -1321,1034 -1550,1471 -2695,3295 -3624,5222 -330,-130 -663,-255 -1004,-358l607 1229c-213,482 -430,963 -621,1450 -516,1317 -939,2662 -1287,4026 220,-14 444,14 670,81 -252,340 -502,681 -739,1033l-187 1c83,-372 161,-745 256,-1114 -192,14 -376,58 -544,166l-4224 -20756c-337,4675 -588,9393 -475,14092 0,1 0,1 -12,2 -853,388 -1641,894 -2367,1482l-3139 -21966c-369,7087 -671,14241 -553,21369 -29,-23 -56,-47 -83,-68 -482,-369 -984,-713 -1504,-1027l1616 2918c25,914 81,1826 122,2739l-1034 790 -5537 -16615c-818,2825 -1058,5685 -929,8545 -712,-1025 -1508,-1991 -2386,-2883 2041,-3207 3884,-6524 5382,-10017 206,-481 471,-954 538,-1482l-7745 9832c-373,-308 -743,-622 -1131,-904 -6085,-4431 -13385,-7173 -20826,-8048 -765,-90 -1533,-157 -2303,-159l241 176 19744 14360 -1029 1306 113 -558c-351,419 -678,853 -1007,1287 -2464,-822 -5061,-1260 -7655,-1287l1501 1244c-125,-50 -250,-104 -375,-154l604 464c-1203,630 -2257,1503 -3188,2500 -762,-297 -1531,-576 -2308,-836 1516,-2516 2466,-5343 2545,-8333l-7205 5240c-286,28 -571,62 -855,100 -165,-2103 -690,-4095 -2369,-5469 -1329,-1088 -3106,-1376 -4775,-1377l2472 7416c-1723,-263 -3453,-472 -5179,-624 -1078,-95 -2159,-167 -3242,-171l2664 1168 -1733 1323 -775 -1401c-393,791 -646,1599 -791,2415 -701,-962 -1493,-1849 -2420,-2600l826 -2479 2644 -7933c-1668,1 -3445,287 -4774,1374 -2996,2452 -2364,6857 -2447,10383 -42,1808 -1095,2248 -2196,2627 -948,-354 -1905,-682 -2873,-979 -319,-512 -654,-1014 -1000,-1509l1324 -2389c-977,5 -1967,69 -2930,257 -69,-84 -130,-174 -200,-257l56 281c-451,94 -897,210 -1328,380 -909,358 -1553,976 -2001,1720 -745,-146 -1493,-281 -2242,-402 62,-291 114,-586 139,-892l-1560 682c-988,-140 -1976,-259 -2966,-363l18981 -13804c-770,2 -1536,68 -2300,158 -7441,876 -14743,3617 -20829,8048 -75,56 -146,121 -221,178l-351 -444c26,205 97,397 168,590 -1670,1272 -3199,2770 -4472,4458 -240,-6738 -807,-13456 -1972,-20114 -1355,-7743 -3538,-15390 -7058,-22440l0 3zm317502 36882c33,-1371 -62,-4878 -71,-3644 -14,1211 19,2428 71,3644zm-58244 -5262l9566 7312 6188 4728 -107 192c-1176,-180 -2356,-326 -3536,-453 -144,-483 -321,-963 -556,-1436l-721 1302c-137,-14 -273,-28 -410,-42 -969,-86 -1940,-146 -2912,-161l24 -10c-59,0 -118,4 -176,5 -60,-1 -116,-5 -175,-5l23 10c-973,14 -1946,75 -2915,161 -1760,154 -3522,365 -5276,636 -419,-202 -837,-407 -1261,-600l0 -2c-590,-268 -1184,-527 -1784,-778l383 -519c-183,56 -361,135 -534,215 -91,42 -177,90 -266,134 -279,-115 -556,-236 -838,-347l607 463c-901,472 -1730,1067 -2479,1758l-2759 -4982 9914 -7581zm-310507 875l1082 3249c-256,199 -500,410 -734,631 -2166,2054 -3562,4789 -4643,7546 -91,232 -163,470 -248,704 -337,-265 -692,-506 -1056,-731l466 -841c-302,181 -582,393 -870,594 -241,-134 -485,-262 -737,-377 2462,-3470 4772,-7033 6740,-10775zm411611 0l1083 3249c-256,199 -500,409 -734,631 -362,343 -695,712 -1016,1090l-983 -1987c576,-980 1122,-1978 1650,-2983zm-75952 968l5428 4148 7445 5688c-280,341 -548,689 -814,1041 -2464,-822 -5061,-1260 -7655,-1287l1023 845 4453 3685c-429,719 -834,1451 -1211,2198l-124 1c-551,-343 -1109,-668 -1665,-948 -3287,-1654 -6761,-2875 -10324,-3770 -401,-337 -798,-678 -1204,-1011 1075,-1468 2332,-2910 3015,-4494 821,-1905 1477,-4004 1633,-6096l0 0zm-317329 836l4270 14367c-120,59 -244,108 -363,168 -557,281 -1114,605 -1665,948l-4923 0 214 -724c-417,213 -809,463 -1192,724l-241 0c-146,-289 -294,-575 -448,-860l4348 -14623zm411609 0l1092 3673 -5486 11111 4394 -14784zm-394237 1450l3561 8015c-1185,172 -2368,364 -3544,595l358 -1075c-390,391 -750,810 -1104,1234 -793,166 -1585,339 -2371,536l3100 -9305zm377167 517l2483 7453 -699 1262 -2978 -6032 1194 -2683zm-411612 2l2881 8637c-139,168 -273,338 -385,524l-2939 -2244 73 -132c-45,29 -85,61 -129,88l-115 -88 61 125c-453,281 -898,578 -1321,902 -829,634 -1600,1333 -2323,2076 -44,-48 -90,-96 -134,-144l4331 -9744zm407971 417c0,1008 38,2015 114,3020 -804,1337 -1461,2772 -2027,4216 -516,1316 -936,2662 -1284,4026 290,-19 593,33 884,139l-818 1480c-43,-463 -83,-925 -129,-1387 18,-77 42,-153 63,-231 -29,2 -58,-4 -86,0 -176,-1691 -388,-3378 -628,-5062 33,-128 68,-257 97,-385 1333,-1903 2610,-3839 3814,-5815l0 -1zm37742 100l4331 12997 -2060 0 -2915 -2412 1363 -4085c-909,910 -1711,1924 -2442,2981 -784,1133 -1494,2308 -2145,3516l-465 0 4333 -12997zm-513072 458l819 6680c-936,-252 -1889,-449 -2847,-592l2028 -6088zm242405 1433l6186 3425c-231,143 -450,302 -673,458 -247,-139 -497,-268 -755,-385 -174,-80 -349,-156 -532,-213l724 983c-24,19 -47,28 -68,48 -830,636 -1599,1335 -2323,2079 -903,-993 -1923,-1876 -3091,-2525 231,-1286 426,-2575 532,-3868l0 -2zm-272492 2662c584,911 1180,1814 1791,2709l814 4002c-999,-1716 -2261,-3255 -3867,-4431l1262 -2280zm393016 740c1012,1374 2137,2707 2800,4131 -2201,728 -4359,1583 -6436,2628 -556,279 -1114,604 -1665,948l-124 0c-377,-746 -781,-1478 -1208,-2196l346 -288 5128 -4245c-43,0 -85,1 -127,2l1014 -775 272 -205zm-114243 78l919 510 2459 1360c-374,336 -733,686 -1082,1045 -789,-867 -1666,-1650 -2657,-2264l361 -651zm28949 397c917,1145 1901,2228 2912,3288 -1331,504 -2642,1063 -3924,1689l1012 -4977zm-63765 103c0,141 13,283 13,424l-748 570 735 -994zm158499 107l1769 1352c-1089,192 -2173,410 -3251,656l1482 -2008zm175411 63l897 3775c-979,-195 -1989,-249 -2985,-253l1901 3433 -9335 0 28 -53 9494 -6902zm-353453 115l1262 918c-344,477 -679,960 -999,1453 -464,-271 -939,-521 -1421,-760 390,-535 773,-1073 1158,-1611zm304288 14l2 0 49 168 -63 -115c0,-18 14,-37 14,-53l-2 0zm-114648 173l2859 1250 -1238 2235c-1220,196 -2438,421 -3648,680 -1060,-648 -2137,-1270 -3227,-1864l141 -63 1565 -685 3548 -1553zm-221250 23l2573 1129 315 136c-1237,595 -2420,1293 -3532,2094l-809 -1460c430,-495 849,-996 1258,-1509l195 -390zm-95857 132l129 258c775,972 1589,1906 2434,2816 -346,963 -457,2035 -395,3036 13,141 0,264 0,388l-3387 -1c-274,-560 -568,-1110 -912,-1635 -98,-150 -216,-288 -319,-436l2450 -4426zm347899 107l3729 2851c-33,54 -72,105 -107,159 -1229,-719 -2526,-1322 -3866,-1813l244 -1197zm-173055 47l2125 2881c-924,1088 -1758,2255 -2528,3463l-1192 0c620,-2089 1170,-4207 1595,-6344zm-182532 105l364 490c-23,19 -46,28 -69,48 -658,505 -1271,1059 -1862,1633 528,-720 1050,-1444 1567,-2171zm188695 92l1738 2357 242 329c-778,916 -1491,1887 -2157,2891 -331,-744 -709,-1467 -1158,-2152 -99,-150 -217,-287 -319,-434l1654 -2991zm-63321 217l1114 851 307 236 1848 1528 -1601 2033c-453,-271 -909,-527 -1363,-755 -779,-392 -1568,-755 -2367,-1100l2062 -2793zm29364 38c88,1971 261,3937 519,5893l-736 0c-527,-826 -1085,-1631 -1680,-2405l-180 -1258c707,-731 1411,-1462 2077,-2230zm123478 163c365,564 766,1098 1196,1609 -580,-213 -1167,-408 -1755,-600l559 -1009zm-109891 98l327 660c-158,-119 -318,-233 -478,-351l151 -309zm-151998 275c-127,485 -273,967 -395,1451 -27,109 -51,221 -77,331 -124,-86 -246,-177 -373,-258l845 -1524zm58437 28c182,332 353,669 541,998l-2798 1223c-48,-158 -98,-314 -158,-466l2415 -1755zm-165753 15l1262 5320 -4207 0 1609 -2908 1336 -2412zm228347 83l2131 1550 -834 1506c-531,-452 -1088,-870 -1659,-1269l362 -1787zm-220899 19l1840 809 312 136c-340,163 -675,333 -1006,512l-1146 -1457zm277661 141l7638 4231c303,284 604,567 909,848l-7140 0 0 -5c-255,-166 -539,-215 -831,-227 33,77 57,155 87,232l-1525 0c453,-128 957,-249 1438,-232 -362,-865 -796,-1702 -1314,-2493 -97,-150 -216,-287 -319,-434l1057 -1920zm-193247 19l1004 1360c-194,617 -369,1239 -529,1864 310,-23 635,38 944,156 -434,546 -849,1105 -1246,1680l-112 -1c126,-614 259,-1227 415,-1835 -237,19 -467,74 -663,242 -288,245 -460,567 -585,912 -178,-323 -360,-644 -563,-954 -97,-149 -217,-286 -320,-434l1655 -2990zm96281 2l303 1277 348 1470 -348 265 -1275 975c-103,-50 -207,-94 -310,-144l1282 -3843zm319932 534c339,1531 772,3040 1280,4521l-2766 0c568,-1481 1066,-2991 1486,-4521zm21913 0c161,587 333,1172 517,1753l-1367 2769 -429 -1c508,-1481 941,-2990 1280,-4521l-1 0zm-500866 71l1404 1160 1321 1094c-428,719 -832,1450 -1209,2196l-125 0c-550,-344 -1108,-668 -1664,-948 -255,-128 -519,-238 -775,-361l1048 -3141zm391777 38l1387 607c-454,47 -910,86 -1362,141 -1,-250 -15,-499 -24,-748l-1 0zm-162194 14l831 1058c-72,75 -151,143 -222,219 -266,-286 -552,-553 -833,-824l207 -419 17 -34zm99622 51l5954 2608c-450,563 -881,1142 -1291,1738l-6837 -1c-306,-412 -626,-812 -957,-1204 1226,-869 2328,-1916 3132,-3141l-1 0zm-104360 73l163 329c-186,180 -371,361 -551,547l388 -876zm-109830 212c59,100 122,198 180,298 -452,1044 -591,2256 -521,3375 12,141 0,264 0,388l-1011 0 1352 -4061zm369819 49l1338 4014 -351 0 -1367 -2768c131,-414 261,-829 380,-1246zm-135105 390c0,606 77,1212 171,1818 -217,166 -428,341 -639,514l-1280 -560c597,-578 1171,-1176 1748,-1772l0 0zm29865 66l2262 1730c-1578,415 -3135,900 -4663,1463 14,-129 19,-258 19,-381 0,-389 -23,-1146 -33,-1755l2415 -1057zm-271239 127c-642,1056 -1038,2218 -1319,3431l-4328 0 375 -1123 5272 -2308zm202247 124l1633 3307 -3266 0 1633 -3307zm-169214 51l2520 1105c0,227 0,453 12,675 43,679 -79,1143 -300,1477l-555 -1 -2096 -2659c150,-193 286,-394 420,-597l-1 0zm297503 100c272,1067 604,2118 977,3157l-412 0c-502,-728 -1029,-1437 -1591,-2116 342,-347 692,-686 1026,-1041l0 0zm-362008 166l395 1328c-60,261 -126,521 -183,782l-970 -740 758 -1370zm299842 690c-139,779 -330,1547 -565,2300l-914 0 -739 -1331 1670 -731 548 -238zm16132 150l-1081 1955 -108 195 -419 0c146,-532 263,-1065 353,-1602l173 -75 1082 -473zm-407439 38l3807 1667 149 446 -6510 0 1116 -923 1438 -1190zm305116 61l419 2052 -716 0 -1599 -1221 1896 -831zm224451 58c14,100 14,197 23,295 81,574 200,1140 346,1697l-1035 0 666 -1992zm-311032 193l363 263c122,514 253,1024 386,1536l-1002 0c122,-599 212,-1199 253,-1799zm248655 38c-132,585 -265,1171 -385,1759l-483 0 868 -1759zm-54664 48l2 0 3907 1711 -3990 0c72,-221 116,-465 81,-765 -38,-323 -28,-637 0,-946zm-149963 222l1099 1489 -1923 0 824 -1489zm6017 0l1100 1489 -1923 0 823 -1489zm-61051 190l1567 1296 -2372 0 64 -307c247,-328 493,-658 741,-987l0 -2zm113010 280c-43,339 -99,676 -134,1016l-429 0 563 -1016zm-127479 107l2074 909 -2343 0c-165,-56 -326,-117 -487,-177 252,-244 514,-477 755,-731l1 -1zm280727 0l253 185c-1,-33 0,-61 0,-92l592 816 -952 0 107 -909zm-319954 33c187,295 387,584 577,877l-1728 0c397,-274 781,-567 1151,-877zm7957 171l807 353 809 353 -2006 0 390 -706zm12854 42l158 666 -251 0c-123,-77 -244,-161 -368,-234 153,-145 310,-285 461,-432zm196988 73l122 593 -839 0 717 -593zm-70227 166c152,142 305,285 458,426l-1433 0 975 -426zm-226664 28l295 400 -516 0 221 -400zm6020 0l295 400 -517 0 222 -400zm270952 3l293 397 -513 0 220 -397zm99062 0l219 397 -512 0 293 -397zm-186031 170c-50,76 -97,153 -146,230l-914 0c335,-95 699,-190 1060,-230z" inkscape:connector-curvature="0"/>
   </g>
  </g>
 </g>
</svg>
