<?xml version="1.0" encoding="UTF-8"?>
<!DOCTYPE svg PUBLIC "-//W3C//DTD SVG 1.0//EN" "http://www.w3.org/TR/2001/REC-SVG-20010904/DTD/svg10.dtd">
<!-- Creator: CorelDRAW 2020 (64 Bit) -->
<svg xmlns="http://www.w3.org/2000/svg" xml:space="preserve" width="2303px" height="1697px" version="1.0" shape-rendering="geometricPrecision" text-rendering="geometricPrecision" image-rendering="optimizeQuality" fill-rule="evenodd" clip-rule="evenodd"
viewBox="0 0 91778 67601"
 xmlns:xlink="http://www.w3.org/1999/xlink"
 xmlns:xodm="http://www.corel.com/coreldraw/odm/2003">
 <g id="Camada_x0020_1">
  <metadata id="CorelCorpID_0Corel-Layer"/>
  <path fill="#E6E7E8" fill-rule="nonzero" fill-opacity="0.301961" d="M91703 50063c343,-6116 -490,-12170 -2478,-17991 -1992,-5822 -5038,-11123 -9049,-15748 -4156,-4792 -9175,-8651 -14917,-11469 -5741,-2817 -11865,-4425 -18198,-4780 -6115,-343 -12170,492 -17992,2480 -5821,1990 -11121,5034 -15748,9048 -3473,3013 -6456,6478 -8908,10344 8405,5898 16928,11119 25561,15714 8430,-10377 33123,-7699 30929,15176 9750,4303 19101,7823 28072,10598 1557,-4305 2470,-8782 2728,-13372z"/>
  <path fill="#96989A" fill-rule="nonzero" fill-opacity="0.301961" d="M87240 67601c646,-1369 1224,-2758 1735,-4166 -2274,-711 -5517,-1775 -9547,-3230 -4673,-1686 -11018,-4121 -18525,-7368 1641,-7768 -2112,-15972 -9558,-19626 -7446,-3653 -16231,-1601 -21371,4450 -7162,-3951 -12970,-7479 -17162,-10142 -3618,-2299 -6443,-4212 -8397,-5575 -931,1468 -1786,2994 -2562,4575 -690,1407 -1308,2837 -1853,4290 4673,3235 13571,9087 25924,15879 -1034,7398 2706,14957 9769,18423 7062,3465 15330,1797 20548,-3547 5514,2394 10508,4395 14843,6037l16156 0zm-34858 -14091c-2402,4895 -8318,6914 -13212,4513 -4893,-2401 -6915,-8315 -4513,-13210 2401,-4893 8316,-6913 13209,-4512 4894,2401 6917,8316 4516,13209z"/>
  <path fill="white" fill-rule="nonzero" fill-opacity="0.200000" d="M91703 50063c343,-6116 -490,-12170 -2478,-17991 -1992,-5822 -5038,-11123 -9049,-15748 -4156,-4792 -9175,-8651 -14917,-11469 -593,-291 -1190,-568 -1790,-833 5014,2718 9433,6263 13161,10562 4016,4628 7060,9927 9048,15747 1988,5822 2825,11878 2481,17993 -354,6334 -1966,12455 -4783,18197 -178,362 -360,723 -547,1080l4411 0c2621,-5550 4120,-11448 4463,-17538z"/>
 </g>
</svg>
